<?xml version="1.0" encoding="UTF-8" standalone="no"?>
<svg
   width="132.97311"
   height="132.50943"
   viewBox="0 0 132.97311 132.50943"
   fill="none"
   version="1.1"
   id="svg25"
   sodipodi:docname="Ideas-Research-Institute-White-1.svg"
   xml:space="preserve"
   inkscape:version="1.3 (0e150ed, 2023-07-21)"
   xmlns:inkscape="http://www.inkscape.org/namespaces/inkscape"
   xmlns:sodipodi="http://sodipodi.sourceforge.net/DTD/sodipodi-0.dtd"
   xmlns="http://www.w3.org/2000/svg"
   xmlns:svg="http://www.w3.org/2000/svg"><defs
     id="defs25" /><sodipodi:namedview
     id="namedview25"
     pagecolor="#ffffff"
     bordercolor="#666666"
     borderopacity="1.0"
     inkscape:showpageshadow="2"
     inkscape:pageopacity="0.0"
     inkscape:pagecheckerboard="0"
     inkscape:deskcolor="#d1d1d1"
     inkscape:zoom="2.9072936"
     inkscape:cx="56.925795"
     inkscape:cy="88.398364"
     inkscape:window-width="1512"
     inkscape:window-height="845"
     inkscape:window-x="0"
     inkscape:window-y="33"
     inkscape:window-maximized="0"
     inkscape:current-layer="svg25" /><path
     d="m 39.292214,60.562216 c 0,3.2621 -0.0935,6.5275 0.02,9.7862 0.2226,6.4121 -3.8333,11.162 -8.9811,13.1928 -6.4868,2.5592 -14.2581,0.292 -17.9924,-5.2984 -3.7576098,-5.6282 -2.6890898,-13.0773 2.6135,-17.3209 4.7616,-3.80947 10.083,-4.37017 15.7462,-2.2728 0.6567,0.2432 0.65,0.2709 0.6511,-0.4386 0,-2.83459 0.0111,-5.77358 -0.0067,-8.61598 0,-0.24316 0.1959,-0.44079 0.4397,-0.44412 h 7.0789 c 0.246,0 0.4453,0.19874 0.4453,0.44412 -0.0223,3.65736 -0.0145,7.31251 -0.0145,10.96768 z m -14.5809,16.8545 c 3.6241,0 6.6404,-2.9112 6.6404,-6.4121 0,-3.5008 -3.0441,-6.352 -6.6348,-6.3498 -3.5907,0.0022 -6.6382,2.9079 -6.6449,6.3454 -0.0111,3.4919 3.0175,6.4143 6.6349,6.4165 z"
     fill="white"
     id="path1"
     style="fill:#004c50;fill-opacity:1" /><path
     d="m 99.848414,76.760516 c 0,2.1595 -0.0133,4.3202 0.0101,6.4798 0,0.4896 -0.1525,0.6328 -0.6345,0.6217 -2.2561,-0.0488 -4.736,0.0467 -6.9921,0 -0.1681,0 -0.2516,-0.2587 -0.2549,-0.3475 -0.0234,-0.5973 -0.3473,-0.3331 -0.6022,-0.232 -2.2094,0.9237 -4.5991,1.3379 -6.991,1.2135 -6.0672,-0.3109 -11.7493,-4.3246 -13.2619,-10.1793 -1.6629,-6.4398 1.644,-12.9906 7.8314,-15.5444 5.1011,-2.10177 10.0853,-1.83641 14.7367,1.1581 4.0214,2.5881 6.1551,6.3454 6.1696,11.1897 v 5.6371 z m -14.5241,-12.129 c -3.6329,-0.0289 -6.6504,2.8057 -6.6882,6.2832 -0.0379,3.4775 2.9384,6.3932 6.5513,6.4398 3.613,0.0466 6.685,-2.8402 6.7217,-6.341 0.0378,-3.4519 -2.9518,-6.3498 -6.5848,-6.382 z"
     fill="white"
     id="path2"
     style="fill:#004c50;fill-opacity:1" /><path
     d="m 58.794914,72.514716 h -9.4408 c -0.689,0 -0.6957,0.0077 -0.4397,0.6661 0.9328,2.385 2.7559,3.7751 5.2135,4.1715 2.4387,0.3897 4.4923,-0.5652 6.1385,-2.3961 0.1892,-0.2087 0.4485,-0.3397 0.729,-0.3686 2.3218,-0.0277 4.6448,0 6.9666,-0.0289 0.5921,-0.0088 0.6333,0.1877 0.4574,0.6573 -1.9845,5.3184 -5.8112,8.5195 -11.4276,9.2611 -5.8902,0.7773 -10.6741,-1.3889 -13.8496,-6.4242 -4.9163,-7.7988 -0.7257,-18.3845 8.9277,-20.4586 7.0011,-1.50446 13.7005,2.1485 16.1848,8.6604 0.6956,1.8265 0.8793,3.7218 0.8025,5.6626 -0.0223,0.5407 -0.2972,0.624 -0.7558,0.6229 -3.1688,-0.0122 -6.3376,-0.0067 -9.5065,-0.0067 z m -3.7454,-4.5823 c 1.7141,0 3.4282,0 5.1423,-0.0055 0.1614,-0.0167 0.3206,-0.05 0.4753,-0.0989 -0.0423,-0.1387 -0.0991,-0.2731 -0.1692,-0.4008 -2.0436,-2.9823 -6.124,-3.7462 -9.1136,-1.7076 -0.6745,0.4596 -1.2566,1.0414 -1.7163,1.7143 -0.0713,0.1266 -0.128,0.2598 -0.1725,0.3986 0.1558,0.0466 0.3149,0.0788 0.4763,0.0955 1.693,0.01 3.3848,0.0077 5.0777,0.0077 z"
     fill="white"
     id="path3"
     style="fill:#004c50;fill-opacity:1" /><path
     d="m 111.10611,84.563716 c -3.415,0.0322 -6.42,-1.1103 -9.14,-3.1022 -0.4,-0.2942 -0.418,-0.4685 -0.12,-0.8505 1.136,-1.4434 2.244,-2.9134 3.339,-4.389 0.257,-0.3475 0.411,-0.3631 0.744,-0.0711 1.987,1.7499 4.322,2.3017 6.901,1.8498 0.49,-0.0855 0.955,-0.2809 1.359,-0.5707 0.976,-0.725 0.869,-2.0407 -0.244,-2.5137 -0.967,-0.4109 -2.019,-0.6296 -3.037,-0.9172 -1.126,-0.3175 -2.278,-0.5551 -3.381,-0.9371 -3.137,-1.0847 -4.701,-3.3453 -4.885,-6.6263 -0.278,-4.9442 2.815,-7.8299 7.079,-8.7104 4.158,-0.85825 7.791,0.2976 11.075,2.8502 0.423,0.3331 0.403,0.5241 0.029,0.8782 -1.188,1.1348 -2.358,2.2917 -3.51,3.4698 -0.316,0.322 -0.522,0.3575 -0.917,0.0977 -1.51,-0.9938 -3.176,-1.3524 -4.966,-0.9993 -0.898,0.1776 -1.33,0.5762 -1.41,1.2213 -0.086,0.6884 0.262,1.3757 1.073,1.6766 1.113,0.4142 2.272,0.6984 3.419,1.0148 0.855,0.2354 1.737,0.3853 2.58,0.6584 3.641,1.177 5.263,3.6041 5.12,7.5879 -0.136,3.7495 -2.156,6.3155 -6.061,7.6978 -1.635,0.5807 -3.328,0.7728 -5.047,0.685 z"
     fill="white"
     id="path4"
     style="fill:#004c50;fill-opacity:1" /><path
     d="m 0.47926113,71.164516 c 0,-3.9738 0.015583,-7.9476 -0.015582,-11.9203 0,-0.6406 0.184765,-0.7883 0.79916507,-0.7772 2.19158,0.0333 4.38428,0.0189 6.57586,-0.0066 0.46525,-0.0056 0.58212,0.1498 0.58212,0.5917 -0.01113,8.0554 -0.01113,16.1107 0,24.166 0.00112,0.3453 -0.27826,0.6262 -0.62441,0.6273 -0.00334,0 -0.00668,0 -0.01002,0 -2.23277,-0.0211 -4.46665,-0.0211 -6.7005241,0 -0.49641697,0 -0.61885197,-0.1543 -0.61662597,-0.6296 0.017809,-4.0171 0.01113,-8.0364 0.010017,-12.0513 z"
     fill="white"
     id="path5"
     style="fill:#004c50;fill-opacity:1" /><path
     d="m 123.98511,79.848316 c 0,-2.4227 2.028,-4.3891 4.512,-4.3835 2.38,0.0055 4.473,2.0651 4.476,4.4035 0,2.5759 -2.02,4.6122 -4.553,4.5833 -2.533,-0.0289 -4.441,-2.003 -4.435,-4.6033 z m 4.302,2.3416 c 0.021,0.1022 0.122,0.1688 0.224,0.1477 0.054,-0.0111 0.101,-0.0444 0.127,-0.0922 0.037,-0.0566 0.065,-0.1177 0.083,-0.1821 0.222,-0.9837 0.802,-1.5933 1.801,-1.8164 0.142,-0.0444 0.222,-0.1954 0.179,-0.3376 -0.024,-0.0766 -0.079,-0.1376 -0.154,-0.1687 -0.023,-0.01 -0.048,-0.0178 -0.072,-0.0245 -0.96,-0.222 -1.568,-0.7772 -1.781,-1.7498 -0.003,-0.0178 -0.009,-0.0355 -0.016,-0.0522 -0.049,-0.1155 -0.182,-0.171 -0.298,-0.1221 -0.064,0.0266 -0.113,0.0832 -0.132,0.151 -0.207,1.0115 -0.863,1.5666 -1.856,1.7887 -0.031,0.0055 -0.061,0.0155 -0.089,0.03 -0.031,0.0144 -0.061,0.0322 -0.091,0.0499 -0.098,0.0589 -0.129,0.1843 -0.07,0.282 0.02,0.0334 0.049,0.06 0.084,0.0778 l 0.034,0.0111 c 1.095,0.2553 1.804,0.8882 2.025,2.0096 v -0.0022 z"
     fill="white"
     id="path6"
     style="fill:#004c50;fill-opacity:1" /><path
     d="m 4.3137442,47.181825 c 2.3296,0 4.13829,1.832011 4.11826,4.165881 -0.0167,2.26837 -1.85433,4.1026 -4.12717,4.1237 -2.21829,0.03331 -4.22399907,-1.96081 -4.08709499,-4.33021 0.13022592,-2.24172 1.79533499,-3.963813 4.09600499,-3.959371 z"
     fill="white"
     id="path7"
     style="fill:#004c50;fill-opacity:1" /><rect
     style="fill:none;fill-rule:evenodd;stroke-width:0.134547;stroke-linecap:round;stroke-linejoin:round;stroke-miterlimit:3.4;stroke-dasharray:0.134547, 1.07637;paint-order:markers fill stroke;stroke:none"
     id="rect1"
     width="132.97311"
     height="132.50943"
     x="0"
     y="0"
     rx="26.707531"
     ry="24.901602" /></svg>
