<?xml version="1.0" encoding="UTF-8" standalone="no"?>
<svg
   width="58"
   height="58"
   viewBox="0 0 4.4716608 4.4716608"
   version="1.1"
   id="svg628"
   sodipodi:docname="polimi copy.svg"
   inkscape:version="1.2.1 (9c6d41e, 2022-07-14)"
   xmlns:inkscape="http://www.inkscape.org/namespaces/inkscape"
   xmlns:sodipodi="http://sodipodi.sourceforge.net/DTD/sodipodi-0.dtd"
   xmlns="http://www.w3.org/2000/svg"
   xmlns:svg="http://www.w3.org/2000/svg">
  <defs
     id="defs632" />
  <sodipodi:namedview
     id="namedview630"
     pagecolor="#ffffff"
     bordercolor="#666666"
     borderopacity="1.0"
     inkscape:showpageshadow="2"
     inkscape:pageopacity="0.0"
     inkscape:pagecheckerboard="0"
     inkscape:deskcolor="#d1d1d1"
     showgrid="false"
     inkscape:zoom="4.2115979"
     inkscape:cx="13.652775"
     inkscape:cy="40.127288"
     inkscape:window-width="1512"
     inkscape:window-height="794"
     inkscape:window-x="0"
     inkscape:window-y="38"
     inkscape:window-maximized="0"
     inkscape:current-layer="g626" />
  <g
     fill-rule="evenodd"
     clip-rule="evenodd"
     id="g626"
     transform="translate(-151.44154,-68.066485)">
    <g
       id="g188"
       transform="matrix(0.0770976,0,0,0.0770976,151.51864,68.143583)">
      <title
         id="title182">background</title>
      <rect
         fill="#ffffff"
         id="canvas_background"
         height="58"
         width="58"
         y="-1"
         x="-1" />
      <g
         display="none"
         overflow="visible"
         y="0"
         x="0"
         height="100%"
         width="100%"
         id="canvasGrid">
        <rect
           fill="url(#gridpattern)"
           stroke-width="0"
           y="0"
           x="0"
           height="100%"
           width="100%"
           id="rect185" />
      </g>
    </g>
    <path
       d="m 155.79756,70.302317 c 0,1.165514 -0.95515,2.120422 -2.12018,2.120422 -1.16408,0 -2.12019,-0.954908 -2.12019,-2.120422 0,-1.165515 0.95516,-2.120424 2.12019,-2.120424 1.16575,0 2.12018,0.954909 2.12018,2.120424 z m -2.58998,0.23693 -0.003,0.0048 0.007,-0.0024 0.40614,-0.239326 -0.072,-0.04069 z m 1.85406,0.545663 h 0.008 l -0.004,-0.0072 -1.23204,-0.828066 -0.0936,0.05265 z m -1.39694,-2.266412 -0.003,-0.0048 -0.004,0.0048 -0.0857,1.385695 0.0764,0.04547 z m 1.2847,-0.01197 0.003,0.0072 c 0.10027,0.09334 0.19528,0.193854 0.28121,0.30155 0.26756,0.335056 0.40708,0.758662 0.40708,1.187055 0,0.337447 -0.0902,0.66293 -0.25152,0.957301 l 0.022,0.04068 -0.046,0.0024 c -0.35252,0.588742 -1.00014,0.959697 -1.68748,0.959697 -0.6883,0 -1.33232,-0.368563 -1.68509,-0.959697 l -0.0433,-0.0024 0.018,-0.04068 c -0.1029,-0.189069 -0.17351,-0.390101 -0.21515,-0.600707 l -0.004,-0.0048 -0.003,0.0072 c 0.0273,0.222573 0.0977,0.440359 0.20391,0.638998 0.34678,0.650965 0.99343,1.033885 1.72936,1.033885 1.11717,0 2.02829,-0.916616 2.02829,-2.03187 0,-0.571989 -0.29485,-1.148763 -0.75029,-1.495785 z m -1.30433,-0.418818 c -1.04082,0.01915 -1.88134,0.868751 -1.88134,1.914603 0,0.325482 0.0893,0.638999 0.23717,0.926189 l 1.32802,-1.088931 0.1089,0.06223 -1.45056,1.064996 -0.006,0.01436 h 0.0163 l 1.64919,-0.928582 -0.003,0.332663 -1.60778,0.603099 c 0.3408,0.571988 0.97716,0.926189 1.64177,0.926189 0.66796,0 1.29595,-0.354201 1.64082,-0.926189 l -1.60683,-0.603099 -0.004,-0.332663 1.65374,0.928582 h 0.0144 l -0.007,-0.01197 -1.4515,-1.067389 0.10794,-0.06223 1.32897,1.088931 c 0.15221,-0.284797 0.23956,-0.600707 0.23956,-0.926189 0,-1.055425 -0.83692,-1.883491 -1.88109,-1.916996 l 0.27857,1.696816 -0.28455,0.167528 -0.0206,-1.895456 -0.008,-0.0096 -0.008,0.0096 -0.20056,1.787759 -0.10697,-0.05983 z m -1.32131,3.47261 c -0.41213,-0.414033 -0.6493,-0.969268 -0.6493,-1.558007 0,-1.10329 0.89987,-2.003153 2.00292,-2.003153 0.96615,0 1.78944,0.698829 2.03091,1.615447 l 0.005,0.0024 0.003,-0.0048 c -0.1929,-0.969267 -1.04346,-1.682455 -2.03857,-1.682455 -1.13943,0 -2.07328,0.933369 -2.07328,2.072557 0,0.600705 0.26685,1.167906 0.71534,1.565187 h 0.006 l -0.002,-0.0072"
       style="fill:#231f20;fill-rule:nonzero;stroke:none;stroke-width:0.0770976"
       id="path9979" />
  </g>
</svg>
