<?xml version="1.0" encoding="UTF-8" standalone="no"?>
<svg
   viewBox="0 0 13.001386 13.000962"
   version="1.1"
   id="svg2"
   sodipodi:docname="Uni_stuttgart_logo.svg"
   width="13.001386"
   height="13.000962"
   inkscape:version="1.4.2 (ebf0e940, 2025-05-08)"
   xmlns:inkscape="http://www.inkscape.org/namespaces/inkscape"
   xmlns:sodipodi="http://sodipodi.sourceforge.net/DTD/sodipodi-0.dtd"
   xmlns="http://www.w3.org/2000/svg"
   xmlns:svg="http://www.w3.org/2000/svg">
  <defs
     id="defs2" />
  <sodipodi:namedview
     id="namedview2"
     pagecolor="#ffffff"
     bordercolor="#000000"
     borderopacity="0.25"
     inkscape:showpageshadow="2"
     inkscape:pageopacity="0.0"
     inkscape:pagecheckerboard="0"
     inkscape:deskcolor="#d1d1d1"
     inkscape:zoom="8.433005"
     inkscape:cx="31.364857"
     inkscape:cy="12.925404"
     inkscape:window-width="1440"
     inkscape:window-height="785"
     inkscape:window-x="0"
     inkscape:window-y="31"
     inkscape:window-maximized="0"
     inkscape:current-layer="svg2" />
  <path
     d="m 6.4928959,6.1555486 c -0.1947103,0 -0.3517063,0.1579132 -0.3517063,0.351671 0,0.1939342 0.156996,0.3517063 0.3517063,0.3517063 0.1943223,0 0.3517063,-0.1577721 0.3517063,-0.3517063 0,-0.1937578 -0.157384,-0.351671 -0.3517063,-0.351671"
     style="fill:#34373e;fill-opacity:1;fill-rule:nonzero;stroke:none;stroke-width:0.03528"
     id="path1" />
  <path
     d="m 7.3803996,5.9598504 c 0,-0.1944634 -0.1581955,-0.3525178 -0.3525178,-0.3525178 -0.1941811,0 -0.351424,0.1580544 -0.351424,0.3525178 0,0.1938989 0.1572429,0.3514241 0.351424,0.3514241 0.1943223,0 0.3525178,-0.1575252 0.3525178,-0.3514241 m 0,1.0954793 C 7.3803996,6.8614308 7.2222041,6.7032 7.0278818,6.7032 c -0.1941811,0 -0.351424,0.1582308 -0.351424,0.3521297 0,0.1942869 0.1572429,0.3520944 0.351424,0.3520944 0.1943223,0 0.3525178,-0.1578075 0.3525178,-0.3520944 m 0.254016,-0.9171389 c -0.193793,0 -0.351283,0.1574899 -0.351283,0.3519533 0,0.1937577 0.15749,0.3518474 0.351283,0.3518474 0.1945692,0 0.3519533,-0.1580897 0.3519533,-0.3518474 0,-0.1944634 -0.1573841,-0.3519533 -0.3519533,-0.3519533 m 0.6620292,-0.552767 c -0.1938989,0 -0.3517063,0.1579132 -0.3517063,0.3519532 0,0.1944634 0.1578074,0.3515652 0.3517063,0.3515652 0.1941811,0 0.3522708,-0.1571018 0.3522708,-0.3515652 0,-0.19404 -0.1580897,-0.3519532 -0.3522708,-0.3519532 m -0.0055,1.1294892 c -0.1932285,0 -0.3517063,0.1584777 -0.3517063,0.3528 0,0.1936166 0.1584778,0.351424 0.3517063,0.351424 0.1943223,0 0.3525178,-0.1578074 0.3525178,-0.351424 0,-0.1943223 -0.1581955,-0.3528 -0.3525178,-0.3528 M 7.610143,7.9666826 c 0.1947456,0 0.3525177,-0.158513 0.3525177,-0.3518474 0,-0.1938989 -0.1577721,-0.3520944 -0.3525177,-0.3520944 -0.1937578,0 -0.3510008,0.1581955 -0.3510008,0.3520944 0,0.1933344 0.157243,0.3518474 0.3510008,0.3518474 M 7.4137745,8.296727 c 0,-0.1947103 -0.1578075,-0.3520944 -0.3524119,-0.3520944 -0.19404,0 -0.3518122,0.1573841 -0.3518122,0.3520944 0,0.1938989 0.1577722,0.3518475 0.3518122,0.3518475 0.1946044,0 0.3524119,-0.1579486 0.3524119,-0.3518475 M 6.5131466,9.3957696 c 0.1943223,0 0.3528,-0.1574899 0.3528,-0.3520944 0,-0.1943222 -0.1584777,-0.3518474 -0.3528,-0.3518474 -0.1931932,0 -0.3512829,0.1575252 -0.3512829,0.3518474 0,0.1946045 0.1580897,0.3520944 0.3512829,0.3520944 M 9.0399355,6.1388611 c -0.1941811,0 -0.3520944,0.1581955 -0.3520944,0.3521297 0,0.194287 0.1579133,0.3518122 0.3520944,0.3518122 0.1941811,0 0.3521297,-0.1575252 0.3521297,-0.3518122 0,-0.1939342 -0.1579486,-0.3521297 -0.3521297,-0.3521297 m -0.036515,1.1763763 c -0.1936166,0 -0.3515652,0.1576664 -0.3515652,0.3514241 0,0.1943223 0.1579486,0.3517063 0.3515652,0.3517063 0.1941811,0 0.3528,-0.157384 0.3528,-0.3517063 0,-0.1937577 -0.1586189,-0.3514241 -0.3528,-0.3514241 m 0.823153,-0.5302936 c -0.1941811,0 -0.3516711,0.1580544 -0.3516711,0.3525177 0,0.1938989 0.15749,0.3514241 0.3516711,0.3514241 0.1938995,0 0.3521295,-0.1575252 0.3521295,-0.3514241 0,-0.1944633 -0.15823,-0.3525177 -0.3521295,-0.3525177 M 10.0832,8.3295374 c 0,-0.1951336 -0.157807,-0.3528 -0.3522704,-0.3528 -0.1931933,0 -0.351671,0.1576664 -0.351671,0.3528 0,0.1931933 0.1584777,0.3505774 0.351671,0.3505774 0.1944634,0 0.3522704,-0.1573841 0.3522704,-0.3505774 M 9.2308356,8.8562678 c 0,-0.19404 -0.1579486,-0.351424 -0.3521297,-0.351424 -0.1941811,0 -0.3520944,0.157384 -0.3520944,0.351424 0,0.1945692 0.1579133,0.3516711 0.3520944,0.3516711 0.1941811,0 0.3521297,-0.1571019 0.3521297,-0.3516711 M 7.6653914,9.3496234 c 0.1939342,0 0.3522708,-0.1575252 0.3522708,-0.3518475 0,-0.1945692 -0.1583366,-0.3519533 -0.3522708,-0.3519533 -0.19404,0 -0.3519532,0.1573841 -0.3519532,0.3519533 0,0.1943223 0.1579132,0.3518475 0.3519532,0.3518475 M 7.1145648,10.173327 c 0.1937578,0 0.3521297,-0.15766 0.3521297,-0.3516996 0,-0.1943152 -0.1583719,-0.3525107 -0.3521297,-0.3525107 -0.1941811,0 -0.3515652,0.1581955 -0.3515652,0.3525107 0,0.1940396 0.1573841,0.3516996 0.3515652,0.3516996 m -0.605687,0.87373 c 0.1948867,0 0.3529411,-0.157797 0.3529411,-0.351699 0,-0.19404 -0.1580544,-0.352525 -0.3529411,-0.352525 -0.1934756,0 -0.3511419,0.158485 -0.3511419,0.352525 0,0.193902 0.1576663,0.351699 0.3511419,0.351699 m 2.062504,-2.8318973 c 0,-0.1937931 -0.1578074,-0.3514241 -0.3522355,-0.3514241 -0.1930874,0 -0.3515652,0.157631 -0.3515652,0.3514241 0,0.1938989 0.1584778,0.3523766 0.3515652,0.3523766 0.1944281,0 0.3522355,-0.1584777 0.3522355,-0.3523766 M 10.650961,7.4294741 c -0.193898,0 -0.351671,0.1571018 -0.351671,0.3511418 0,0.1947456 0.157773,0.3521297 0.351671,0.3521297 0.194464,0 0.352553,-0.1573841 0.352553,-0.3521297 0,-0.19404 -0.158089,-0.3511418 -0.352553,-0.3511418 M 10.51979,8.6970845 c -0.193757,0 -0.351847,0.1575252 -0.351847,0.3520944 0,0.1938989 0.15809,0.3514241 0.351847,0.3514241 0.194323,0 0.351671,-0.1575252 0.351671,-0.3514241 0,-0.1945692 -0.157348,-0.3520944 -0.351671,-0.3520944 m 0.866124,0.7570029 c -0.194287,0 -0.351812,0.1576522 -0.351812,0.3519674 0,0.1943152 0.157525,0.3518372 0.351812,0.3518372 0.19404,0 0.352271,-0.157522 0.352271,-0.3518372 0,-0.1943152 -0.158231,-0.3519674 -0.352271,-0.3519674 m -1.067749,0.49543 c -0.193616,0 -0.3517061,0.1583476 -0.3517061,0.3519746 0,0.194315 0.1580901,0.352246 0.3517061,0.352246 0.194852,0 0.352659,-0.157931 0.352659,-0.352246 0,-0.193627 -0.157807,-0.3519746 -0.352659,-0.3519746 M 9.9340718,9.5786646 c 0,-0.1943257 -0.1583366,-0.3528035 -0.3525177,-0.3528035 -0.1938989,0 -0.3517063,0.1584778 -0.3517063,0.3528035 0,0.19404 0.1578074,0.3514206 0.3517063,0.3514206 0.1941811,0 0.3525177,-0.1573806 0.3525177,-0.3514206 M 9.0584222,10.86721 c 0.1937578,0 0.3519533,-0.157656 0.3519533,-0.351696 0,-0.193902 -0.1581955,-0.352524 -0.3519533,-0.352524 -0.1943222,0 -0.3515652,0.158622 -0.3515652,0.352524 0,0.19404 0.157243,0.351696 0.3515652,0.351696 m -1.2782296,0.132713 c 0.1944633,0 0.3522708,-0.157518 0.3522708,-0.351833 0,-0.194591 -0.1578075,-0.352112 -0.3522708,-0.352112 -0.1937578,0 -0.35153,0.157521 -0.35153,0.352112 0,0.194315 0.1577722,0.351833 0.35153,0.351833 M 8.6825844,9.7330146 c 0,-0.1939024 -0.1580544,-0.3523801 -0.3519533,-0.3523801 -0.1941811,0 -0.3517063,0.1584777 -0.3517063,0.3523801 0,0.1936273 0.1575252,0.3511454 0.3517063,0.3511454 0.1938989,0 0.3519533,-0.1575181 0.3519533,-0.3511454 m 2.4552766,1.0404844 c -0.193899,0 -0.351707,0.157931 -0.351707,0.351834 0,0.193902 0.157808,0.351837 0.351707,0.351837 0.194322,0 0.352517,-0.157935 0.352517,-0.351837 0,-0.193903 -0.158195,-0.351834 -0.352517,-0.351834 m -1.3358069,0.253713 c -0.1938989,0 -0.3517063,0.158485 -0.3517063,0.3528 0,0.19349 0.1578074,0.351421 0.3517063,0.351421 0.1943222,0 0.3525179,-0.157931 0.3525179,-0.351421 0,-0.194315 -0.1581957,-0.3528 -0.3525179,-0.3528 m -0.5767575,1.0256 c -0.1937577,0 -0.3520944,0.157518 -0.3520944,0.351837 0,0.193899 0.1583367,0.351696 0.3520944,0.351696 0.19404,0 0.3521297,-0.157797 0.3521297,-0.351696 0,-0.194319 -0.1580897,-0.351837 -0.3521297,-0.351837 M 8.4739385,11.171775 c -0.1944281,0 -0.3525178,0.157935 -0.3525178,0.351837 0,0.193903 0.1580897,0.352387 0.3525178,0.352387 0.1936519,0 0.3515652,-0.158484 0.3515652,-0.352387 0,-0.193902 -0.1579133,-0.351837 -0.3515652,-0.351837 m -0.6110496,1.057024 c -0.1941811,0 -0.3515652,0.157931 -0.3515652,0.352525 0,0.193901 0.1573841,0.351697 0.3515652,0.351697 0.1944633,0 0.3522355,-0.157796 0.3522355,-0.351697 0,-0.194594 -0.1577722,-0.352525 -0.3522355,-0.352525 M 7.1468107,11.2597 c -0.1941811,0 -0.3517063,0.15821 -0.3517063,0.352525 0,0.193902 0.1575252,0.351424 0.3517063,0.351424 0.1943223,0 0.3521297,-0.157522 0.3521297,-0.351424 0,-0.194315 -0.1578074,-0.352525 -0.3521297,-0.352525 m -0.632147,1.037454 c -0.19404,0 -0.3515652,0.158069 -0.3515652,0.351973 0,0.194316 0.1575252,0.351835 0.3515652,0.351835 0.1946045,0 0.3524119,-0.157519 0.3524119,-0.351835 0,-0.193904 -0.1578074,-0.351973 -0.3524119,-0.351973 M 5.8395456,11.2597 c -0.1939342,0 -0.3518474,0.157384 -0.3518474,0.352525 0,0.193902 0.1579132,0.351424 0.3518474,0.351424 0.1941458,0 0.3525178,-0.157522 0.3525178,-0.351424 0,-0.195141 -0.158372,-0.352525 -0.3525178,-0.352525 m -0.7068701,0.973234 c -0.1942869,0 -0.3515299,0.157794 -0.3515299,0.352525 0,0.193212 0.157243,0.351145 0.3515299,0.351145 0.1937931,0 0.3517063,-0.157933 0.3517063,-0.351145 0,-0.194731 -0.1579132,-0.352525 -0.3517063,-0.352525 M 3.8061122,12.051433 c -0.1938988,0 -0.3518403,0.157797 -0.3518403,0.352387 0,0.19404 0.1579415,0.351836 0.3518403,0.351836 0.1943223,0 0.3525178,-0.157796 0.3525178,-0.351836 0,-0.19459 -0.1581955,-0.352387 -0.3525178,-0.352387 M 11.531586,8.1185278 c -0.193335,0 -0.351283,0.1578074 -0.351283,0.3518474 0,0.1946045 0.157948,0.3520944 0.351283,0.3520944 0.194745,0 0.352129,-0.1574899 0.352129,-0.3520944 0,-0.19404 -0.157384,-0.3518474 -0.352129,-0.3518474 m 0.880624,0.7257448 c -0.193617,0 -0.351566,0.1576311 -0.351566,0.3516711 0,0.1946045 0.157949,0.3521261 0.351566,0.3521261 0.194886,0 0.352553,-0.1575216 0.352553,-0.3521261 0,-0.19404 -0.157667,-0.3516711 -0.352553,-0.3516711 m 0.177776,-1.3376059 c -0.193899,0 -0.35153,0.1581955 -0.35153,0.3525178 0,0.19404 0.157631,0.3514241 0.35153,0.3514241 0.194322,0 0.352129,-0.1573841 0.352129,-0.3514241 0,-0.1943223 -0.157807,-0.3525178 -0.352129,-0.3525178 m -0.97775,-0.6981559 c -0.194323,0 -0.351707,0.1579133 -0.351707,0.3523766 0,0.1934756 0.157384,0.3514241 0.351707,0.3514241 0.19404,0 0.352094,-0.1579485 0.352094,-0.3514241 0,-0.1944633 -0.158054,-0.3523766 -0.352094,-0.3523766 m 1.037302,-0.6660511 c -0.194604,0 -0.351424,0.1579133 -0.351424,0.3523766 0,0.1938989 0.15682,0.3518475 0.351424,0.3518475 0.193758,0 0.351848,-0.1579486 0.351848,-0.3518475 0,-0.1944633 -0.15809,-0.3523766 -0.351848,-0.3523766 M 11.61153,5.5062907 c -0.193617,0 -0.351001,0.1580897 -0.351001,0.3525531 0,0.19404 0.157384,0.351671 0.351001,0.351671 0.194746,0 0.352659,-0.157631 0.352659,-0.351671 0,-0.1944634 -0.157913,-0.3525531 -0.352659,-0.3525531 m 0.622516,-0.3713925 c 0,0.19404 0.15749,0.3519885 0.35153,0.3519885 0.194322,0 0.352411,-0.1579485 0.352411,-0.3519885 0,-0.1943223 -0.158089,-0.3523767 -0.352411,-0.3523767 -0.19404,0 -0.35153,0.1580544 -0.35153,0.3523767 M 11.173705,4.527553 c 0,0.1938988 0.157384,0.3518474 0.351565,0.3518474 0.194182,0 0.351954,-0.1579486 0.351954,-0.3518474 0,-0.19404 -0.157772,-0.3525178 -0.351954,-0.3525178 -0.194181,0 -0.351565,0.1584778 -0.351565,0.3525178 m 1.238363,-0.3941482 c 0.194182,0 0.351989,-0.1580544 0.351989,-0.351671 0,-0.1947456 -0.157807,-0.3525531 -0.351989,-0.3525531 -0.194145,0 -0.351953,0.1578075 -0.351953,0.3525531 0,0.1936166 0.157808,0.351671 0.351953,0.351671 M 11.032585,3.2059289 c 0,0.1936519 0.157243,0.3510007 0.35086,0.3510007 0.194745,0 0.352518,-0.1573488 0.352518,-0.3510007 0,-0.1947103 -0.157773,-0.3525178 -0.352518,-0.3525178 -0.193617,0 -0.35086,0.1578075 -0.35086,0.3525178 m 0.103088,-0.9664603 c 0.19404,0 0.351671,-0.1575252 0.351671,-0.3517064 0,-0.19404 -0.157631,-0.3518474 -0.351671,-0.3518474 -0.194604,0 -0.35227,0.1578074 -0.35227,0.3518474 0,0.1941812 0.157666,0.3517064 0.35227,0.3517064 M 9.9733385,2.7023774 c 0,0.1941812 0.1578075,0.3518122 0.3514245,0.3518122 0.193898,0 0.352411,-0.157631 0.352411,-0.3518122 0,-0.1941811 -0.158513,-0.3521296 -0.352411,-0.3521296 -0.193617,0 -0.3514245,0.1579485 -0.3514245,0.3521296 m -0.398664,0.3738622 c -0.1936519,0 -0.3514241,0.1575252 -0.3514241,0.3522708 0,0.1936166 0.1577722,0.3517063 0.3514241,0.3517063 0.1947103,0 0.3528,-0.1580897 0.3528,-0.3517063 0,-0.1947456 -0.1580897,-0.3522708 -0.3528,-0.3522708 M 8.52453,4.1454 c 0,0.19404 0.1580544,0.3517063 0.3525178,0.3517063 0.1936166,0 0.3517063,-0.1576663 0.3517063,-0.3517063 0,-0.1943222 -0.1580897,-0.3523766 -0.3517063,-0.3523766 C 8.6825844,3.7930234 8.52453,3.9510778 8.52453,4.1454 M 8.3354645,2.920937 c -0.1943223,0 -0.3518475,0.1576664 -0.3518475,0.3523767 0,0.19404 0.1575252,0.3511771 0.3518475,0.3511771 C 8.5298926,3.6244908 8.6877,3.4673537 8.6877,3.2733137 8.6877,3.0786034 8.5298926,2.920937 8.3354645,2.920937 M 7.7762059,2.0106778 c -0.1936166,0 -0.3517063,0.1583719 -0.3517063,0.352553 0,0.194287 0.1580897,0.351671 0.3517063,0.351671 0.1943223,0 0.3521297,-0.157384 0.3521297,-0.351671 0,-0.1941811 -0.1578074,-0.352553 -0.3521297,-0.352553 M 7.119257,2.8254341 c -0.19404,0 -0.3518474,0.1575252 -0.3518474,0.3522355 0,0.1941811 0.1578074,0.3517063 0.3518474,0.3517063 0.1936167,0 0.3519886,-0.1575252 0.3519886,-0.3517063 0,-0.1947103 -0.1583719,-0.3522355 -0.3519886,-0.3522355 m -1.2520166,0.00773 c -0.1943222,0 -0.3515652,0.1578074 -0.3515652,0.3523766 0,0.19404 0.157243,0.3518475 0.3515652,0.3518475 0.1937578,0 0.3520944,-0.1578075 0.3520944,-0.3518475 0,-0.1945692 -0.1583366,-0.3523766 -0.3520944,-0.3523766 m -0.5299056,0.826187 c -0.1934755,0 -0.3519533,0.1580544 -0.3519533,0.3520944 0,0.1943223 0.1584778,0.3517064 0.3519533,0.3517064 0.1943222,0 0.3519886,-0.1573841 0.3519886,-0.3517064 0,-0.19404 -0.1576664,-0.3520944 -0.3519886,-0.3520944 m 0.2391278,1.059776 c 0,0.1936166 0.157243,0.351424 0.35153,0.351424 0.1938988,0 0.3522708,-0.1578074 0.3522708,-0.351424 0,-0.1947456 -0.158372,-0.3521297 -0.3522708,-0.3521297 -0.194287,0 -0.35153,0.1573841 -0.35153,0.3521297 m -1.1423311,0.069325 c 0,0.194428 0.1577722,0.3523766 0.3519533,0.3523766 0.1943222,0 0.3519886,-0.1579486 0.3519886,-0.3523766 0,-0.19404 -0.1576664,-0.352412 -0.3519886,-0.352412 -0.1941811,0 -0.3519533,0.158372 -0.3519533,0.352412 m -0.43218,0.2001081 c -0.1941811,0 -0.3518474,0.1580544 -0.3518474,0.3525178 0,0.1938989 0.1576663,0.3518121 0.3518474,0.3518121 0.1944281,0 0.3518122,-0.1579132 0.3518122,-0.3518121 0,-0.1944634 -0.1573841,-0.3525178 -0.3518122,-0.3525178 M 3.177405,6.2384918 c 0.1937648,0 0.3519709,-0.1577721 0.3519709,-0.3518121 0,-0.1937931 -0.1582061,-0.3525531 -0.3519709,-0.3525531 -0.1944528,0 -0.3515581,0.15876 -0.3515581,0.3525531 0,0.19404 0.1571053,0.3518121 0.3515581,0.3518121 M 2.914322,4.6743178 c 0,0.1936519 0.1580686,0.351424 0.3518334,0.351424 0.1944527,0 0.3523731,-0.1577721 0.3523731,-0.351424 0,-0.1945692 -0.1579204,-0.3520944 -0.3523731,-0.3520944 -0.1937648,0 -0.3518334,0.1575252 -0.3518334,0.3520944 M 1.9975924,5.22144 c 0,0.1938989 0.1577969,0.3518474 0.3514206,0.3518474 0.1945939,0 0.3525248,-0.1579485 0.3525248,-0.3518474 0,-0.19404 -0.1579309,-0.3523766 -0.3525248,-0.3523766 -0.1936237,0 -0.3514206,0.1583366 -0.3514206,0.3523766 M 1.3850152,6.2034941 c 0.19404,0 0.3522496,-0.1579133 0.3522496,-0.351283 0,-0.1948514 -0.1582096,-0.3523766 -0.3522496,-0.3523766 -0.1941776,0 -0.3518333,0.1575252 -0.3518333,0.3523766 0,0.1933697 0.1576557,0.351283 0.3518333,0.351283 M 0.41150945,5.4842407 c 0.19417759,0 0.35238369,-0.1584777 0.35238369,-0.351671 0,-0.1944634 -0.1582061,-0.3525531 -0.35238369,-0.3525531 -0.19404141,0 -0.35169891,0.1580897 -0.35169891,0.3525531 0,0.1931933 0.1576575,0.351671 0.35169891,0.351671 M 1.4759706,4.8824345 c 0.1943187,0 0.3525248,-0.1578075 0.3525248,-0.3514241 0,-0.1947456 -0.1582061,-0.3528 -0.3525248,-0.3528 -0.1937613,0 -0.3510078,0.1580544 -0.3510078,0.3528 0,0.1936166 0.1572465,0.3514241 0.3510078,0.3514241 M 0.59410814,3.4238182 c -0.19376128,0 -0.35155814,0.1576663 -0.35155814,0.3522355 0,0.1941811 0.15779686,0.3518474 0.35155814,0.3518474 0.19362723,0 0.35211204,-0.1576663 0.35211204,-0.3518474 0,-0.1945692 -0.15848481,-0.3522355 -0.35211204,-0.3522355 M 1.6292198,3.5587289 c 0.1944528,0 0.3523872,-0.1576311 0.3523872,-0.3518122 0,-0.1946045 -0.1579344,-0.3522708 -0.3523872,-0.3522708 -0.1934896,0 -0.3508702,0.1576663 -0.3508702,0.3522708 0,0.1941811 0.1573806,0.3518122 0.3508702,0.3518122 m 0.8527846,0.03528 c -0.1936272,0 -0.351424,0.1583719 -0.351424,0.3522708 0,0.1941811 0.1577968,0.3525177 0.351424,0.3525177 0.1948656,0 0.3528,-0.1583366 0.3528,-0.3525177 0,-0.1938989 -0.1579344,-0.3522708 -0.3528,-0.3522708 M 3.0814893,3.425053 c 0,0.1938988 0.1577933,0.3518474 0.3518333,0.3518474 0.1944492,0 0.3523978,-0.1579486 0.3523978,-0.3518474 0,-0.1941812 -0.1579486,-0.3525178 -0.3523978,-0.3525178 -0.19404,0 -0.3518333,0.1583366 -0.3518333,0.3525178 m 0.6883551,0.7214407 c 0,0.1936519 0.1579486,0.3517063 0.3517063,0.3517063 0.1946045,0 0.3526589,-0.1580544 0.3526589,-0.3517063 0,-0.1941459 -0.1580544,-0.3525178 -0.3526589,-0.3525178 -0.1937577,0 -0.3517063,0.1583719 -0.3517063,0.3525178 m -1.4645151,2.69451 c 0.1938988,0 0.3516957,-0.1579133 0.3516957,-0.3508596 0,-0.1946045 -0.1577969,-0.3526589 -0.3516957,-0.3526589 -0.1939024,0 -0.3518369,0.1580544 -0.3518369,0.3526589 0,0.1929463 0.1579345,0.3508596 0.3518369,0.3508596 M 6.5156515,3.6179993 c -0.1938989,0 -0.3518474,0.1578074 -0.3518474,0.3522355 0,0.1941811 0.1579485,0.3519886 0.3518474,0.3519886 0.1938989,0 0.3526589,-0.1578075 0.3526589,-0.3519886 0,-0.1944281 -0.15876,-0.3522355 -0.3526589,-0.3522355 M 9.0561996,2.1296066 c -0.1941811,0 -0.3525178,0.158372 -0.3525178,0.352412 0,0.19404 0.1583367,0.3518121 0.3525178,0.3518121 0.1936519,0 0.3517063,-0.1577721 0.3517063,-0.3518121 0,-0.19404 -0.1580544,-0.352412 -0.3517063,-0.352412 M 9.4509122,1.6154359 c 0,0.19404 0.1575252,0.3518475 0.3517064,0.3518475 0.1937577,0 0.3519534,-0.1578075 0.3519534,-0.3518475 0,-0.19404 -0.1581957,-0.3523766 -0.3519534,-0.3523766 -0.1941812,0 -0.3517064,0.1583366 -0.3517064,0.3523766 M 8.4768314,1.828633 c 0.1943223,0 0.3519886,-0.1576664 0.3519886,-0.3517064 0,-0.1941458 -0.1576663,-0.3523766 -0.3519886,-0.3523766 -0.1941458,0 -0.351671,0.1582308 -0.351671,0.3523766 0,0.19404 0.1575252,0.3517064 0.351671,0.3517064 M 9.2273782,0.94719744 c 0.1946044,0 0.3520944,-0.15766632 0.3520944,-0.35114184 0,-0.1947456 -0.15749,-0.35294112 -0.3520944,-0.35294112 -0.1936167,0 -0.3515652,0.15819552 -0.3515652,0.35294112 0,0.19347552 0.1579485,0.35114184 0.3515652,0.35114184 m -1.3615964,-0.17199 c 0.1941812,0 0.3518475,-0.1575252 0.3518475,-0.35170632 0,-0.19485144 -0.1576663,-0.35251776 -0.3518475,-0.35251776 -0.1943222,0 -0.3520944,0.15766632 -0.3520944,0.35251776 0,0.19418112 0.1577722,0.35170632 0.3520944,0.35170632 m -1.355387,-0.0709834 c 0.1947456,0 0.3525178,-0.15780744 0.3525178,-0.35184744 C 6.8629126,0.15833664 6.7051404,0 6.5103948,0 6.3173426,0 6.1591118,0.15833664 6.1591118,0.35237664 c 0,0.19404 0.1582308,0.35184744 0.351283,0.35184744 m -1.3799066,0.0673848 c 0.1934755,0 0.3518474,-0.15833664 0.3518474,-0.35167104 0,-0.1947456 -0.1583719,-0.35255304 -0.3518474,-0.35255304 -0.1946045,0 -0.3525178,0.15780744 -0.3525178,0.35255304 0,0.1933344 0.1579133,0.35167104 0.3525178,0.35167104 M 3.8048774,0.95076072 c 0.1945692,0 0.3522356,-0.15763104 0.3522356,-0.35167104 0,-0.19418112 -0.1576664,-0.35255304 -0.3522356,-0.35255304 -0.1941811,0 -0.3518474,0.15837192 -0.3518474,0.35255304 0,0.19404 0.1576663,0.35167104 0.3518474,0.35167104 M 5.83002,1.7456897 c 0.1943222,0 0.3517063,-0.1582308 0.3517063,-0.3517063 0,-0.19404 -0.1573841,-0.3523767 -0.3517063,-0.3523767 -0.1941811,0 -0.3517063,0.1583367 -0.3517063,0.3523767 0,0.1934755 0.1575252,0.3517063 0.3517063,0.3517063 m -1.3049366,0.086542 c 0.1941811,0 0.3525177,-0.1575252 0.3525177,-0.3517063 0,-0.19404 -0.1583366,-0.3522355 -0.3525177,-0.3522355 -0.1938989,0 -0.3518475,0.1581955 -0.3518475,0.3522355 0,0.1941811 0.1579486,0.3517063 0.3518475,0.3517063 M 3.9479026,2.13444 c -0.1938989,0 -0.35153,0.1576663 -0.35153,0.3517063 0,0.1941811 0.1576311,0.3525178 0.35153,0.3525178 0.19404,0 0.3518474,-0.1583367 0.3518474,-0.3525178 0,-0.19404 -0.1578074,-0.3517063 -0.3518474,-0.3517063 M 2.6757693,3.0571178 c 0.1938988,0 0.3519709,-0.1576663 0.3519709,-0.3518474 0,-0.1937578 -0.1580721,-0.3522708 -0.3519709,-0.3522708 -0.1944563,0 -0.3515617,0.158513 -0.3515617,0.3522708 0,0.1941811 0.1571054,0.3518474 0.3515617,0.3518474 M 1.9314424,2.2342118 c 0.1944528,0 0.3523872,-0.157631 0.3523872,-0.3518121 0,-0.1941811 -0.1579344,-0.3522708 -0.3523872,-0.3522708 -0.19404,0 -0.3516993,0.1580897 -0.3516993,0.3522708 0,0.1941811 0.1576593,0.3518121 0.3516993,0.3518121 M 3.2068956,1.9719756 c 0.1945938,0 0.3525389,-0.1576663 0.3525389,-0.3517063 0,-0.1938989 -0.1579451,-0.3517063 -0.3525389,-0.3517063 -0.1939025,0 -0.3518334,0.1578074 -0.3518334,0.3517063 0,0.19404 0.1579309,0.3517063 0.3518334,0.3517063 m 1.1112,1.2966811 c 0,0.1938989 0.1584778,0.3516711 0.3518122,0.3516711 0.1943222,0 0.3519885,-0.1577722 0.3519885,-0.3516711 0,-0.1941811 -0.1576663,-0.352553 -0.3519885,-0.352553 -0.1933344,0 -0.3518122,0.1583719 -0.3518122,0.352553 M 5.215513,2.0061266 c -0.1943223,0 -0.3515652,0.1582308 -0.3515652,0.3522708 0,0.1941812 0.1572429,0.3517064 0.3515652,0.3517064 0.1934755,0 0.3519885,-0.1575252 0.3519885,-0.3517064 0,-0.19404 -0.158513,-0.3522708 -0.3519885,-0.3522708 M 7.1443411,1.7451252 c 0.1943223,0 0.3525178,-0.1576663 0.3525178,-0.3511418 0,-0.1947456 -0.1581955,-0.3530823 -0.3525178,-0.3530823 -0.19404,0 -0.3517063,0.1583367 -0.3517063,0.3530823 0,0.1934755 0.1576663,0.3511418 0.3517063,0.3511418 m -0.6318648,0.20727 c -0.1937577,0 -0.3514241,0.1581955 -0.3514241,0.3522355 0,0.1941811 0.1576664,0.3517063 0.3514241,0.3517063 0.1944281,0 0.3525178,-0.1575252 0.3525178,-0.3517063 0,-0.19404 -0.1580897,-0.3522355 -0.3525178,-0.3522355 m 2.0469103,2.8317845 c 0,-0.1938989 -0.1577721,-0.3517063 -0.3519532,-0.3517063 -0.1941812,0 -0.3515652,0.1578074 -0.3515652,0.3517063 0,0.1942869 0.157384,0.3525177 0.3515652,0.3525177 0.1941811,0 0.3519532,-0.1582308 0.3519532,-0.3525177 M 7.6180104,5.039113 c -0.1935108,0 -0.351036,0.1579485 -0.351036,0.3525177 0,0.1937931 0.1575252,0.3508949 0.351036,0.3508949 0.19404,0 0.3523766,-0.1571018 0.3523766,-0.3508949 0,-0.1945692 -0.1583366,-0.3525177 -0.3523766,-0.3525177 M 6.7144896,4.7035296 c 0,0.1943222 0.1582308,0.3517063 0.3517063,0.3517063 0.1944634,0 0.3522355,-0.1573841 0.3522355,-0.3517063 0,-0.1938989 -0.1577721,-0.3520944 -0.3522355,-0.3520944 -0.1934755,0 -0.3517063,0.1581955 -0.3517063,0.3520944 m -0.204377,0.3125808 c -0.19404,0 -0.3514241,0.1575252 -0.3514241,0.3517063 0,0.19404 0.1573841,0.3520944 0.3514241,0.3520944 0.19404,0 0.3517063,-0.1580544 0.3517063,-0.3520944 0,-0.1941811 -0.1576663,-0.3517063 -0.3517063,-0.3517063 m -0.9045792,0.94374 c 0,0.1938989 0.1575252,0.3514241 0.3515652,0.3514241 0.194428,0 0.3520944,-0.1575252 0.3520944,-0.3514241 0,-0.1944634 -0.1576664,-0.3525178 -0.3520944,-0.3525178 -0.19404,0 -0.3515652,0.1580544 -0.3515652,0.3525178 M 5.3939945,5.0457456 c -0.1937931,0 -0.3514241,0.1577722 -0.3514241,0.3525178 0,0.1934755 0.157631,0.3517063 0.3514241,0.3517063 0.1942869,0 0.3526589,-0.1582308 0.3526589,-0.3517063 0,-0.1947456 -0.158372,-0.3525178 -0.3526589,-0.3525178 m -0.03214,1.8027022 c 0.1941811,0 0.3530822,-0.1579133 0.3530822,-0.3518122 0,-0.1943222 -0.1589011,-0.3525178 -0.3530822,-0.3525178 -0.1941458,0 -0.3518122,0.1581956 -0.3518122,0.3525178 0,0.1938989 0.1576664,0.3518122 0.3518122,0.3518122 M 4.7042352,6.2995615 c 0.1941811,0 0.3518474,-0.1579485 0.3518474,-0.3518474 0,-0.19404 -0.1576663,-0.3523767 -0.3518474,-0.3523767 -0.1938989,0 -0.3518474,0.1583367 -0.3518474,0.3523767 0,0.1938989 0.1579485,0.3518474 0.3518474,0.3518474 m 0.00289,1.1285367 c 0.1941811,0 0.3525177,-0.1578075 0.3525177,-0.3514241 0,-0.1943223 -0.1583366,-0.3520944 -0.3525177,-0.3520944 -0.1937578,0 -0.3514241,0.1577721 -0.3514241,0.3520944 0,0.1936166 0.1576663,0.3514241 0.3514241,0.3514241 M 3.9634963,6.8404745 c 0.1936167,0 0.3519533,-0.1582308 0.3519533,-0.3522708 0,-0.194287 -0.1583366,-0.3516711 -0.3519533,-0.3516711 -0.1944633,0 -0.3521297,0.1573841 -0.3521297,0.3516711 0,0.19404 0.1576664,0.3522708 0.3521297,0.3522708 m 0.056342,1.1850552 c 0.1935108,0 0.3517063,-0.1573841 0.3517063,-0.3517063 0,-0.1947456 -0.1581955,-0.3518475 -0.3517063,-0.3518475 -0.1948515,0 -0.3519533,0.1571019 -0.3519533,0.3518475 0,0.1943222 0.1571018,0.3517063 0.3519533,0.3517063 M 3.1776802,7.486663 c 0.1945904,0 0.3516957,-0.1577722 0.3516957,-0.3519533 0,-0.19404 -0.1571053,-0.3522708 -0.3516957,-0.3522708 -0.19404,0 -0.3516958,0.1582308 -0.3516958,0.3522708 0,0.1941811 0.1576558,0.3519533 0.3516958,0.3519533 m 0.097849,1.2073874 c 0.1941776,0 0.3522425,-0.1579486 0.3522425,-0.3508596 0,-0.1953101 -0.1580649,-0.3535056 -0.3522425,-0.3535056 -0.19404,0 -0.3518369,0.1581955 -0.3518369,0.3535056 0,0.192911 0.1577969,0.3508596 0.3518369,0.3508596 M 2.4833804,9.4119278 c 0.19404,0 0.3525248,-0.1576663 0.3525248,-0.3517063 0,-0.1943222 -0.1584848,-0.3525177 -0.3525248,-0.3525177 -0.1936273,0 -0.3518334,0.1581955 -0.3518334,0.3525177 0,0.19404 0.1582061,0.3517063 0.3518334,0.3517063 M 1.8224343,8.4779604 c 0,-0.1943222 -0.1577969,-0.3523766 -0.3519745,-0.3523766 -0.1943152,0 -0.3519744,0.1580544 -0.3519744,0.3523766 0,0.19404 0.1576592,0.3514241 0.3519744,0.3514241 0.1941776,0 0.3519745,-0.1573841 0.3519745,-0.3514241 M 0.76651445,7.8667697 c 0,-0.1947456 -0.15793445,-0.3517063 -0.35238723,-0.3517063 -0.1940407,0 -0.35197374,0.1569607 -0.35197374,0.3517063 0,0.19404 0.15793304,0.3514241 0.35197374,0.3514241 0.19445278,0 0.35238723,-0.1573841 0.35238723,-0.3514241 M 1.3850152,7.5176741 c 0.19404,0 0.3522496,-0.1578075 0.3522496,-0.3520944 0,-0.1936519 -0.1582096,-0.3521297 -0.3522496,-0.3521297 -0.1941776,0 -0.3518333,0.1584778 -0.3518333,0.3521297 0,0.1942869 0.1576557,0.3520944 0.3518333,0.3520944 M 0.3516975,6.8419915 c 0.19417936,0 0.35252305,-0.1580897 0.35252305,-0.3517063 0,-0.1938989 -0.15834369,-0.3520944 -0.35252305,-0.3520944 C 0.15834652,6.1381908 0,6.2963863 0,6.4902852 0,6.6839018 0.15834652,6.8419915 0.3516975,6.8419915 m 1.9993829,1.2868733 c 0.1936272,0 0.3516992,-0.1573841 0.3516992,-0.351671 0,-0.1947456 -0.158072,-0.3517064 -0.3516992,-0.3517064 -0.1943152,0 -0.3515582,0.1569608 -0.3515582,0.3517064 0,0.1942869 0.157243,0.351671 0.3515582,0.351671 M 0.58983926,8.8428967 c -0.19404,0 -0.35142372,0.1584778 -0.35142372,0.3519533 0,0.1944634 0.15738372,0.3518404 0.35142372,0.3518404 0.19459037,0 0.35252129,-0.157377 0.35252129,-0.3518404 0,-0.1934755 -0.15793092,-0.3519533 -0.35252129,-0.3519533 M 1.9701693,9.808535 c 0,-0.1939024 -0.1577969,-0.3525072 -0.3522497,-0.3525072 -0.1941776,0 -0.3516992,0.1586048 -0.3516992,0.3525072 0,0.19404 0.1575216,0.351699 0.3516992,0.351699 0.1944528,0 0.3522497,-0.157659 0.3522497,-0.351699 M 6.309193,7.0553297 C 6.309193,6.8614308 6.1515266,6.7032 5.9570986,6.7032 c -0.19404,0 -0.3515652,0.1582308 -0.3515652,0.3521297 0,0.1942869 0.1575252,0.3520944 0.3515652,0.3520944 0.194428,0 0.3520944,-0.1578075 0.3520944,-0.3520944 m 0.1996848,0.9271937 c 0.1941811,0 0.3526588,-0.1575252 0.3526588,-0.3518475 0,-0.1934755 -0.1584777,-0.3519533 -0.3526588,-0.3519533 -0.1937578,0 -0.3518122,0.1584778 -0.3518122,0.3519533 0,0.1943223 0.1580544,0.3518475 0.3518122,0.3518475 M 6.2772293,8.296727 c 0,-0.1947103 -0.1582308,-0.3520944 -0.3523767,-0.3520944 -0.19404,0 -0.3519885,0.1573841 -0.3519885,0.3520944 0,0.1938989 0.1579485,0.3518475 0.3519885,0.3518475 0.1941459,0 0.3523767,-0.1579486 0.3523767,-0.3518475 M 5.3409334,9.3496234 c 0.19404,0 0.3519532,-0.1575252 0.3519532,-0.3518475 0,-0.1945692 -0.1579132,-0.3519533 -0.3519532,-0.3519533 -0.1944634,0 -0.3521297,0.1573841 -0.3521297,0.3519533 0,0.1943223 0.1576663,0.3518475 0.3521297,0.3518475 m 0.5319518,0.8279756 c 0.1941811,0 0.3518474,-0.158622 0.3518474,-0.3518368 0,-0.1947279 -0.1576663,-0.3532233 -0.3518474,-0.3532233 -0.1937578,0 -0.3518474,0.1584954 -0.3518474,0.3532233 0,0.1932148 0.1580896,0.3518368 0.3518474,0.3518368 m -0.65268,0.819156 c 0.1941811,0 0.3522355,-0.157656 0.3522355,-0.351421 0,-0.194315 -0.1580544,-0.3528 -0.3522355,-0.3528 -0.1941811,0 -0.3517063,0.158485 -0.3517063,0.3528 0,0.193765 0.1575252,0.351421 0.3517063,0.351421 M 3.9389414,10.863904 c 0.1947456,0 0.3522708,-0.157934 0.3522708,-0.351836 0,-0.195004 -0.1575252,-0.352388 -0.3522708,-0.352388 -0.1938988,0 -0.3515299,0.157384 -0.3515299,0.352388 0,0.193902 0.1576311,0.351836 0.3515299,0.351836 M 3.438283,9.9280178 c 0.1938988,0 0.3519885,-0.1576557 0.3519885,-0.3519709 0,-0.1936131 -0.1580897,-0.3522673 -0.3519885,-0.3522673 -0.1941776,0 -0.3516958,0.1586542 -0.3516958,0.3522673 0,0.1943152 0.1575182,0.3519709 0.3516958,0.3519709 m 1.2309544,0.1533872 c 0.1938989,0 0.3518122,-0.157522 0.3518122,-0.3518372 0,-0.1943152 -0.1579133,-0.3519674 -0.3518122,-0.3519674 -0.1944633,0 -0.3517063,0.1576522 -0.3517063,0.3519674 0,0.1943152 0.157243,0.3518372 0.3517063,0.3518372 M 4.4767145,8.853763 c 0,-0.1945692 -0.1583719,-0.3528 -0.3519886,-0.3528 -0.1943222,0 -0.3520944,0.1582308 -0.3520944,0.3528 0,0.1936166 0.1577722,0.3511418 0.3520944,0.3511418 0.1936167,0 0.3519886,-0.1575252 0.3519886,-0.3511418 M 4.7790641,8.5665838 c 0.1946045,0 0.3522355,-0.1582308 0.3522355,-0.3522708 0,-0.1938989 -0.157631,-0.3523767 -0.3522355,-0.3523767 -0.19404,0 -0.3517063,0.1584778 -0.3517063,0.3523767 0,0.19404 0.1576663,0.3522708 0.3517063,0.3522708 M 5.3932889,7.9604734 c 0.1944633,0 0.3521297,-0.1575252 0.3521297,-0.3514241 0,-0.1938989 -0.1576664,-0.3523767 -0.3521297,-0.3523767 -0.1934755,0 -0.3515652,0.1584778 -0.3515652,0.3523767 0,0.1938989 0.1580897,0.3514241 0.3515652,0.3514241 M 3.0251224,10.302317 c 0,-0.19404 -0.1586224,-0.3525244 -0.3525248,-0.3525244 -0.1939024,0 -0.3518333,0.1584844 -0.3518333,0.3525244 0,0.19349 0.1579309,0.351975 0.3518333,0.351975 0.1939024,0 0.3525248,-0.158485 0.3525248,-0.351975 m 0.171302,0.724895 c -0.1936272,0 -0.3515616,0.158485 -0.3515616,0.3528 0,0.19349 0.1579344,0.351971 0.3515616,0.351971 0.19404,0 0.3522497,-0.158481 0.3522497,-0.351971 0,-0.194315 -0.1582097,-0.3528 -0.3522497,-0.3528 M 1.9224848,10.771845 c -0.1944528,0 -0.3523872,0.15738 -0.3523872,0.351699 0,0.194728 0.1579344,0.352109 0.3523872,0.352109 0.1936272,0 0.3518333,-0.157381 0.3518333,-0.352109 0,-0.194319 -0.1582061,-0.351699 -0.3518333,-0.351699 m 2.5987178,0.400759 c -0.194287,0 -0.3516711,0.157656 -0.3516711,0.351696 0,0.193903 0.1573841,0.351699 0.3516711,0.351699 0.19404,0 0.3519885,-0.157796 0.3519885,-0.351699 0,-0.19404 -0.1579485,-0.351696 -0.3519885,-0.351696 M 7.6663793,3.6627696 c -0.1933697,0 -0.3518475,0.1582308 -0.3518475,0.3522708 0,0.1941811 0.1584778,0.3519533 0.3518475,0.3519533 0.1944633,0 0.3523766,-0.1577722 0.3523766,-0.3519533 0,-0.19404 -0.1579133,-0.3522708 -0.3523766,-0.3522708 m 2.4919327,0.2931415 c 0,0.19404 0.157489,0.3518475 0.351812,0.3518475 0.194322,0 0.35227,-0.1578075 0.35227,-0.3518475 0,-0.19404 -0.157948,-0.3523766 -0.35227,-0.3523766 -0.194323,0 -0.351812,0.1583366 -0.351812,0.3523766 M 9.7314941,4.3249752 c -0.1937578,0 -0.3522355,0.1584778 -0.3522355,0.3523766 0,0.19404 0.1584777,0.3518475 0.3522355,0.3518475 0.1938989,0 0.3517059,-0.1578075 0.3517059,-0.3518475 0,-0.1938988 -0.157807,-0.3523766 -0.3517059,-0.3523766 m 0.9114939,1.2472186 c 0.19404,0 0.351848,-0.1578075 0.351848,-0.3517064 0,-0.1944633 -0.157808,-0.3525177 -0.351848,-0.3525177 -0.194181,0 -0.351706,0.1580544 -0.351706,0.3525177 0,0.1938989 0.157525,0.3517064 0.351706,0.3517064 m 0.05486,0.56448 c -0.193793,0 -0.351707,0.1588658 -0.351707,0.3526588 0,0.1937578 0.157914,0.3516711 0.351707,0.3516711 0.194287,0 0.352094,-0.1579133 0.352094,-0.3516711 0,-0.193793 -0.157807,-0.3526588 -0.352094,-0.3526588 M 9.4617785,5.8811407 c 0,0.1937931 0.1576663,0.3517063 0.3524119,0.3517063 0.1938986,0 0.3516706,-0.1579132 0.3516706,-0.3517063 0,-0.1945692 -0.157772,-0.3519533 -0.3516706,-0.3519533 -0.1947456,0 -0.3524119,0.1573841 -0.3524119,0.3519533 M 8.9990107,5.6897467 c 0.1944634,0 0.3528,-0.1579485 0.3528,-0.3511771 0,-0.1945692 -0.1583366,-0.3525178 -0.3528,-0.3525178 -0.1936166,0 -0.3517063,0.1579486 -0.3517063,0.3525178 0,0.1932286 0.1580897,0.3511771 0.3517063,0.3511771"
     style="fill:#34373e;fill-opacity:1;fill-rule:nonzero;stroke:none;stroke-width:0.03528"
     id="path2"
     sodipodi:nodetypes="csssccsssccsssccsssccsssccsssccsssccsssccsssccsssccsssccsssccsssccsssccsssccsssccsssccsssccsssccsssccsssccsssccsssccsssccsssccsssccsssccsssccsssccsssccsssccsssccsssccsssccsssccsssccsssccsssccsssccsssccsssccsssccsssccsssccsssccsssccsssccsssccsssccsssccsssccsssccsssccsssccsssccsssccsssccsssccsssccsssccsssccsssccsssccsssccsssccsssccsssccsssccsssccsssccsssccsssccsssccsssccsssccsssccsssccsssccsssccsssccsssccsssccsssccsssccsssccsssccsssccsssccsssccsssccsssccsssccsssccsssccsssccsssccsssccsssccsssccsssccsssccsssccsssccsssccsssccsssccsssccsssccsssccsssccsssccsssccsssccsssccsssccsssccsssccsssccsssccsssccsssccsssccsssccsssccsssccsssccsssccsssccsssccsssccsssccsssc" />
</svg>
