<svg version="1.1" xmlns="http://www.w3.org/2000/svg" viewBox="0 0 948.3841428178514 422.56401351830164" width="948.3841428178514" height="422.56401351830164">
  <!-- svg-source:excalidraw -->
  
  <defs>
    <style class="style-fonts">
      @font-face {
        font-family: "Virgil";
        src: url("https://excalidraw.com/Virgil.woff2");
      }
      @font-face {
        font-family: "Cascadia";
        src: url("https://excalidraw.com/Cascadia.woff2");
      }
    </style>
    
  </defs>
  <g stroke-linecap="round" transform="translate(565.898519813633 119.68014092763588) rotate(0 26.877200408164015 143.2097079406288)"><path d="M13.44 0 C17.13 1.25, 23.41 -2.97, 40.32 0 C45.75 1.41, 55.81 5.34, 53.75 13.44 C58.85 95.27, 53.4 177.28, 53.75 272.98 C54.88 285.18, 50.55 287.01, 40.32 286.42 C30.12 286.51, 15.97 286.04, 13.44 286.42 C4.95 289.56, -0.51 278.68, 0 272.98 C5.5 182.02, 4.36 89.14, 0 13.44 C-1.31 2.57, 7.62 0.42, 13.44 0" stroke="none" stroke-width="0" fill="#ebfbee"></path><path d="M13.44 0 C24.36 -1.1, 32.26 0.59, 40.32 0 M13.44 0 C22.33 0.27, 30.08 0.62, 40.32 0 M40.32 0 C49.25 1.77, 53.94 5.51, 53.75 13.44 M40.32 0 C47.24 -1.72, 54.1 5.87, 53.75 13.44 M53.75 13.44 C52.63 93.69, 54.47 175.63, 53.75 272.98 M53.75 13.44 C55.2 95.59, 56.41 178.71, 53.75 272.98 M53.75 272.98 C52.94 282.22, 49.88 285.06, 40.32 286.42 M53.75 272.98 C55.35 282.3, 47.54 286.14, 40.32 286.42 M40.32 286.42 C31.52 284.66, 26.73 285.74, 13.44 286.42 M40.32 286.42 C29.12 286.08, 20.17 286.95, 13.44 286.42 M13.44 286.42 C4.96 286.7, -1.99 280.64, 0 272.98 M13.44 286.42 C6.09 286.33, -2.16 283.28, 0 272.98 M0 272.98 C-1.32 203.39, -0.43 134.63, 0 13.44 M0 272.98 C-0.42 198, -0.38 122.47, 0 13.44 M0 13.44 C-0.48 3.11, 4.42 0.6, 13.44 0 M0 13.44 C0.37 6.45, 4.82 -0.87, 13.44 0" stroke="#000000" stroke-width="1" fill="none"></path></g><g stroke-linecap="round" transform="translate(271.5145719100724 208.9194158812577) rotate(0 51 54.05101710574951)"><path d="M6.13 6.66 C6.13 6.66, 6.13 6.66, 6.13 6.66 M6.13 6.66 C6.13 6.66, 6.13 6.66, 6.13 6.66 M0.62 19.09 C6.3 13.5, 12.36 7.11, 15.71 1.73 M0.62 19.09 C4.15 13.77, 9.8 9.54, 15.71 1.73 M1.02 24.73 C5.61 18.69, 14.95 11.99, 22.01 0.58 M1.02 24.73 C7.62 17.33, 15.53 8.21, 22.01 0.58 M0.75 31.13 C7.69 21.26, 12.98 14.14, 27.65 0.19 M0.75 31.13 C7.57 22.74, 16.41 14.09, 27.65 0.19 M1.15 36.77 C12.75 22.88, 23.06 9.28, 32.64 0.55 M1.15 36.77 C11.74 23.61, 22.91 10.88, 32.64 0.55 M0.89 43.17 C14.19 25.28, 29.91 10.83, 37.63 0.91 M0.89 43.17 C10.47 31.53, 19.95 21.09, 37.63 0.91 M0.63 49.57 C9.79 39.49, 22.84 24.12, 43.27 0.51 M0.63 49.57 C10.61 36.36, 22.57 23.8, 43.27 0.51 M1.02 55.21 C10.22 44.68, 21.47 29.78, 48.26 0.87 M1.02 55.21 C10.1 43.57, 19.97 33.39, 48.26 0.87 M0.76 61.61 C20.58 40.02, 40.22 16.09, 53.9 0.48 M0.76 61.61 C12.94 48.17, 23.67 34.04, 53.9 0.48 M0.5 68.01 C16.29 50.79, 30.87 33.32, 58.89 0.84 M0.5 68.01 C20.89 42.28, 43.49 19.47, 58.89 0.84 M0.89 73.65 C25.14 46.42, 49.62 15.5, 64.53 0.44 M0.89 73.65 C19.88 52.33, 38.09 28.89, 64.53 0.44 M0.63 80.05 C27.75 49.84, 52.76 21.46, 69.52 0.81 M0.63 80.05 C24.03 51.82, 49.46 24.37, 69.52 0.81 M1.03 85.69 C22.98 60.01, 43.92 35.94, 74.5 1.17 M1.03 85.69 C28.78 52.93, 57.36 20.66, 74.5 1.17 M2.08 90.58 C28.79 64.59, 52.79 35.08, 80.15 0.77 M2.08 90.58 C22.43 67.38, 40.2 45.36, 80.15 0.77 M3.13 95.47 C23.88 69.81, 45.25 49.22, 85.13 1.13 M3.13 95.47 C25.6 68.21, 46.83 42.22, 85.13 1.13 M4.83 99.6 C36.95 64.92, 66.94 31.52, 88.81 3 M4.83 99.6 C31.65 69.38, 57.35 39.51, 88.81 3 M7.85 102.23 C33.07 70.09, 62.58 37.61, 93.14 4.11 M7.85 102.23 C24.72 80.8, 44.05 60.44, 93.14 4.11 M10.87 104.85 C31.98 81.04, 51.81 60.15, 95.5 7.49 M10.87 104.85 C32.08 78.24, 54.64 52.85, 95.5 7.49 M14.55 106.72 C47.09 70.19, 82.71 30.4, 98.52 10.12 M14.55 106.72 C41.55 76.82, 69 44.4, 98.52 10.12 M18.88 107.84 C37.67 84.48, 61.93 62.69, 99.57 15.01 M18.88 107.84 C50.04 69.87, 82.68 32.97, 99.57 15.01 M23.86 108.2 C44.33 85.7, 60.77 61.9, 100.62 19.89 M23.86 108.2 C52.2 73.38, 82 39.76, 100.62 19.89 M29.51 107.8 C55.91 75.92, 82.08 46.5, 101.67 24.78 M29.51 107.8 C50.24 84.33, 69.18 59.86, 101.67 24.78 M34.49 108.16 C55.59 85.08, 74.53 65.38, 102.07 30.43 M34.49 108.16 C53.96 85.59, 73.9 62.63, 102.07 30.43 M39.48 108.52 C57.04 91.87, 69.95 72.53, 102.46 36.07 M39.48 108.52 C56.47 90.91, 71.65 72.41, 102.46 36.07 M45.12 108.13 C67.52 82.25, 88.82 58.97, 102.2 42.47 M45.12 108.13 C64.17 86.43, 82.81 63.42, 102.2 42.47 M50.11 108.49 C66.79 88.82, 82.35 71.21, 101.94 48.86 M50.11 108.49 C64.9 90.95, 81.32 72.84, 101.94 48.86 M55.75 108.09 C68.98 94.89, 80.55 79.43, 102.33 54.51 M55.75 108.09 C71.96 88.45, 88.42 69.6, 102.33 54.51 M60.74 108.45 C70.57 98.46, 78.31 87.75, 102.07 60.91 M60.74 108.45 C71.21 96.73, 80.39 86.29, 102.07 60.91 M66.38 108.06 C75.87 97.69, 86.2 82.35, 101.81 67.3 M66.38 108.06 C74.7 99.75, 80.45 91.25, 101.81 67.3 M71.37 108.42 C83.53 97.59, 92.93 85.42, 102.21 72.95 M71.37 108.42 C79.06 99.07, 86.58 89.36, 102.21 72.95 M77.01 108.02 C85.03 99.92, 94.62 91.24, 101.95 79.34 M77.01 108.02 C83.82 100.19, 89.24 92.64, 101.95 79.34 M83.31 106.87 C85.99 102.66, 92.52 98.04, 101.68 85.74 M83.31 106.87 C86.43 101.58, 91.13 97.21, 101.68 85.74 M90.27 104.97 C92.29 101.29, 96.19 99.48, 100.11 93.65 M90.27 104.97 C93.01 102.23, 95.97 98.2, 100.11 93.65" stroke="#228be6" stroke-width="0.5" fill="none"></path><path d="M25.5 0 C36.01 0.72, 48.42 1.47, 76.5 0 M25.5 0 C38.07 0.41, 50.84 0.82, 76.5 0 M76.5 0 C93.69 1.03, 100.23 7, 102 25.5 M76.5 0 C93.85 1.39, 102.23 7.63, 102 25.5 M102 25.5 C103.76 45.55, 102.22 64.52, 102 82.6 M102 25.5 C102.38 41.97, 101.18 56.63, 102 82.6 M102 82.6 C102.61 98.24, 94.89 108.41, 76.5 108.1 M102 82.6 C100.26 99.32, 92.99 108.62, 76.5 108.1 M76.5 108.1 C67.49 107.3, 57.63 107.13, 25.5 108.1 M76.5 108.1 C57.61 108.1, 37.06 107.94, 25.5 108.1 M25.5 108.1 C6.51 106.8, 1.4 99.52, 0 82.6 M25.5 108.1 C6.34 109.45, -0.76 100.29, 0 82.6 M0 82.6 C0.48 62.5, 0.04 42.85, 0 25.5 M0 82.6 C0.26 59.96, -0.51 37.06, 0 25.5 M0 25.5 C-0.06 9.1, 8.83 1.72, 25.5 0 M0 25.5 C0.34 7.63, 6.46 1.56, 25.5 0" stroke="#000000" stroke-width="1" fill="none"></path></g><g stroke-linecap="round" transform="translate(52.058841520424494 120.45846923932595) rotate(0 30.5 134)"><path d="M4.06 3.53 C4.06 3.53, 4.06 3.53, 4.06 3.53 M4.06 3.53 C4.06 3.53, 4.06 3.53, 4.06 3.53 M0.52 13.7 C6.29 8.45, 9.17 3.77, 11.67 0.87 M0.52 13.7 C4.13 10.57, 7.27 5.18, 11.67 0.87 M0.26 20.1 C8.21 14.2, 13.51 7.04, 17.31 0.48 M0.26 20.1 C4.98 14.88, 8.87 9.92, 17.31 0.48 M-0.01 26.5 C7.67 15.28, 17.37 5.4, 22.3 0.84 M-0.01 26.5 C8.31 18.02, 16.05 8.24, 22.3 0.84 M0.39 32.14 C7.94 21.08, 19.35 13.35, 27.29 1.2 M0.39 32.14 C6.44 24.68, 13.21 18.62, 27.29 1.2 M0.13 38.54 C10 28.62, 18.23 16.74, 32.93 0.8 M0.13 38.54 C10.19 26.94, 19.29 15.19, 32.93 0.8 M0.52 44.18 C14.71 27.66, 25.01 16.96, 37.92 1.16 M0.52 44.18 C12.39 31.02, 22.61 18.11, 37.92 1.16 M0.26 50.58 C10.19 36.92, 18.5 28.36, 42.9 1.52 M0.26 50.58 C16.71 32.53, 33.5 14.12, 42.9 1.52 M0 56.98 C13.83 40.86, 23.02 26.95, 48.55 1.13 M0 56.98 C16 36.97, 33.55 18.32, 48.55 1.13 M0.39 62.62 C18.38 42.35, 36.08 22.34, 53.53 1.49 M0.39 62.62 C22.34 39.79, 43.52 14.12, 53.53 1.49 M0.13 69.02 C13.45 50.7, 29.57 37.21, 57.21 3.36 M0.13 69.02 C15.15 49.69, 32.05 33, 57.21 3.36 M0.53 74.66 C15.84 58.2, 31.69 39.79, 58.92 7.49 M0.53 74.66 C17.42 56.51, 32.42 39.09, 58.92 7.49 M0.27 81.06 C13.94 64.88, 29.95 47.95, 60.62 11.62 M0.27 81.06 C22.19 56.17, 44.66 30.4, 60.62 11.62 M0.66 86.7 C15.38 70.43, 27.69 52.24, 61.67 16.51 M0.66 86.7 C21.77 60.88, 44.7 34.93, 61.67 16.51 M0.4 93.1 C23.56 69.32, 43.37 45.3, 61.41 22.91 M0.4 93.1 C21.03 67.74, 44.4 42.37, 61.41 22.91 M0.14 99.5 C16.23 82.73, 29.86 65.5, 61.15 29.31 M0.14 99.5 C22.28 74.15, 44.04 48.56, 61.15 29.31 M0.53 105.14 C22.65 79.55, 40.84 57.39, 61.55 34.95 M0.53 105.14 C25.94 77.38, 48.36 49.53, 61.55 34.95 M0.27 111.54 C12.53 98.53, 24.25 84.6, 61.28 41.35 M0.27 111.54 C21.99 86.72, 44.19 62.3, 61.28 41.35 M0.67 117.18 C24.71 91.33, 44.9 66.1, 61.68 46.99 M0.67 117.18 C16.67 98.14, 31.29 81.39, 61.68 46.99 M0.4 123.58 C16.19 110.14, 29.48 94.86, 61.42 53.39 M0.4 123.58 C22.09 98.96, 41.97 76.4, 61.42 53.39 M0.14 129.97 C18.85 104.86, 41.57 84.14, 61.16 59.79 M0.14 129.97 C18.84 108.51, 38.89 86.66, 61.16 59.79 M0.54 135.62 C19.17 113.4, 37.4 92.84, 61.55 65.43 M0.54 135.62 C22.7 107.69, 46.84 81.58, 61.55 65.43 M0.28 142.02 C16.14 126.24, 29.18 107.3, 61.29 71.83 M0.28 142.02 C24.14 114.57, 47.14 88.29, 61.29 71.83 M0.67 147.66 C16.23 127.96, 33.73 105.6, 61.68 77.47 M0.67 147.66 C13.96 131.55, 27.77 117.58, 61.68 77.47 M0.41 154.06 C14.31 139.26, 29.11 123.19, 61.42 83.87 M0.41 154.06 C17.7 132.85, 36.12 113.27, 61.42 83.87 M0.15 160.45 C18.68 139.3, 34.37 121.68, 61.16 90.27 M0.15 160.45 C14.86 144.13, 28.87 126.99, 61.16 90.27 M0.54 166.1 C18.1 144.85, 35.94 127.77, 61.56 95.91 M0.54 166.1 C18.63 145.21, 37.08 122.43, 61.56 95.91 M0.28 172.5 C14.39 154.8, 26.83 138.19, 61.29 102.31 M0.28 172.5 C19.96 149.87, 39.09 128.43, 61.29 102.31 M0.67 178.14 C20.88 152.18, 41.1 129.39, 61.69 107.95 M0.67 178.14 C15.4 159.67, 32.94 140.4, 61.69 107.95 M0.41 184.54 C22.47 159.96, 43.45 133.98, 61.43 114.35 M0.41 184.54 C12.12 169.79, 25.22 157.24, 61.43 114.35 M0.15 190.93 C15.08 176.86, 25.35 161.92, 61.82 119.99 M0.15 190.93 C17.35 169.83, 34.66 149.7, 61.82 119.99 M0.55 196.58 C21.09 175.07, 38.31 153.5, 61.56 126.39 M0.55 196.58 C19.73 175.04, 37.99 153.82, 61.56 126.39 M0.29 202.97 C17.19 185.83, 29.76 169.24, 61.3 132.79 M0.29 202.97 C16.64 183.52, 31.72 165.59, 61.3 132.79 M0.68 208.62 C16.2 190.92, 31.08 173.25, 61.69 138.43 M0.68 208.62 C17.81 186.45, 37.72 166.45, 61.69 138.43 M0.42 215.02 C13.7 196.03, 32.04 179.57, 61.43 144.83 M0.42 215.02 C21.67 189.85, 42.03 167.79, 61.43 144.83 M0.81 220.66 C18.36 202.18, 33.34 182.3, 61.83 150.47 M0.81 220.66 C23.84 194.53, 45.45 170.09, 61.83 150.47 M0.55 227.06 C25.66 197.71, 48.47 171.15, 61.56 156.87 M0.55 227.06 C16.35 208.89, 30.48 191.57, 61.56 156.87 M0.29 233.45 C19.09 214.94, 34.54 194.84, 61.3 163.27 M0.29 233.45 C16.69 213.36, 34.9 193.45, 61.3 163.27 M0.68 239.1 C16.02 220.09, 35.14 200.34, 61.7 168.91 M0.68 239.1 C22.91 213.07, 45.9 184.73, 61.7 168.91 M0.42 245.5 C19.06 221.63, 36.84 202.06, 61.44 175.31 M0.42 245.5 C25.07 218.8, 47.91 191.94, 61.44 175.31 M0.82 251.14 C19.94 231.63, 37.4 210.74, 61.83 180.95 M0.82 251.14 C18.73 229.44, 38.14 209.48, 61.83 180.95 M0.56 257.54 C19.17 233.21, 39.79 209.37, 61.57 187.35 M0.56 257.54 C14.15 242.73, 25.69 229.25, 61.57 187.35 M2.26 261.67 C17.77 242.74, 34.95 223.8, 61.31 193.75 M2.26 261.67 C17.56 245.01, 34.27 226.99, 61.31 193.75 M5.28 264.29 C22.97 245.65, 39.45 225.48, 61.7 199.39 M5.28 264.29 C17.48 249.64, 29.52 235.73, 61.7 199.39 M8.3 266.92 C28.22 244.18, 49.65 222.43, 61.44 205.79 M8.3 266.92 C20.8 251.44, 35.62 236.66, 61.44 205.79 M13.29 267.28 C26.82 249.18, 43.83 233.02, 61.84 211.43 M13.29 267.28 C27.1 250.85, 40.69 236.23, 61.84 211.43 M18.27 267.64 C29.12 254.24, 40.34 239.59, 61.57 217.83 M18.27 267.64 C34.62 249.88, 49.55 231.65, 61.57 217.83 M23.26 268 C30.32 259.02, 41.21 248.04, 61.31 224.23 M23.26 268 C31.09 259.11, 39.54 250.28, 61.31 224.23 M28.9 267.6 C40.57 256.35, 51.2 244.26, 61.71 229.87 M28.9 267.6 C36.74 259.52, 44.39 250.31, 61.71 229.87 M33.89 267.96 C40.49 262.69, 48.34 251.8, 61.45 236.27 M33.89 267.96 C39.99 262.11, 45.8 254.36, 61.45 236.27 M38.88 268.32 C47.82 257.59, 53.77 247.19, 61.84 241.91 M38.88 268.32 C47.95 258.58, 55.82 248.65, 61.84 241.91 M44.52 267.93 C49.93 263.5, 54.72 255.88, 61.58 248.31 M44.52 267.93 C48 262.5, 52.78 258.18, 61.58 248.31 M49.51 268.29 C50.43 266.72, 53.4 261.08, 60.66 255.46 M49.51 268.29 C52.4 263.72, 56.04 261.06, 60.66 255.46" stroke="#82c91e" stroke-width="0.5" fill="none"></path><path d="M15.25 0 C22.64 1.08, 28.53 0.97, 45.75 0 M15.25 0 C24.78 0.74, 34.42 0.37, 45.75 0 M45.75 0 C54.15 -1.5, 61.3 6.29, 61 15.25 M45.75 0 C56.15 -0.87, 61.57 4.6, 61 15.25 M61 15.25 C63.16 84.6, 62.39 149.47, 61 252.75 M61 15.25 C62.22 83.97, 62.82 151.89, 61 252.75 M61 252.75 C62.39 263.23, 54.41 267.76, 45.75 268 M61 252.75 C60.49 263.43, 53.69 266.48, 45.75 268 M45.75 268 C40.74 267.35, 33.8 266.63, 15.25 268 M45.75 268 C38.62 268.23, 30.01 267.44, 15.25 268 M15.25 268 C6.49 267.92, -1.87 264.09, 0 252.75 M15.25 268 C4.32 268.69, 1.26 261.91, 0 252.75 M0 252.75 C-0.41 187.34, 1.32 121.43, 0 15.25 M0 252.75 C-1.26 175.11, -1.09 98.88, 0 15.25 M0 15.25 C0.33 6.8, 5.38 -0.76, 15.25 0 M0 15.25 C-2.04 6.64, 3.31 -1.27, 15.25 0" stroke="#000000" stroke-width="1" fill="none"></path></g><g stroke-linecap="round"><g transform="translate(122.90015068554521 124.45846923932595) rotate(0 -0.4583134377668898 131.0701509918319)"><path d="M0.08 -0.08 C-0.07 43.59, -0.74 218.33, -0.92 262.02 M-0.05 0.21 C-0.23 43.9, -0.82 218.61, -1 262.22" stroke="#000000" stroke-width="1" fill="none"></path></g></g><mask></mask><g stroke-linecap="round"><g transform="translate(122.90015068554521 122.45846923932595) rotate(0 67.18666720755112 42.67732767758105)"><path d="M0.62 0.15 C22.98 14.62, 112.5 71.75, 134.89 86.17 M-0.52 -0.81 C21.62 13.35, 111.42 70.07, 133.88 84.35" stroke="#000000" stroke-width="1" fill="none"></path></g></g><mask></mask><g stroke-linecap="round"><g transform="translate(259.24145985066593 206.75824764377262) rotate(0 -0.2375892923308811 56.85430696346634)"><path d="M-0.02 0.07 C-0.09 19.02, -0.29 94.8, -0.34 113.73 M-0.2 -0.02 C-0.3 18.89, -0.42 94.63, -0.46 113.54" stroke="#000000" stroke-width="1" fill="none"></path></g></g><mask></mask><g stroke-linecap="round"><g transform="translate(258.5588415204245 315.11083584415474) rotate(0 -69.7245043355112 39.772944367385605)"><path d="M-0.02 1.06 C-23.08 14.13, -115.26 66.24, -138.55 78.97 M-1.48 0.58 C-24.69 13.24, -116.78 64.22, -139.43 77.17" stroke="#000000" stroke-width="1" fill="none"></path></g></g><mask></mask><g transform="translate(137.13942563916703 240.79977840444667) rotate(0 52.402000427246094 17.5)"><text x="0" y="0" font-family="Virgil, Segoe UI Emoji" font-size="28px" fill="#000000" text-anchor="start" style="white-space: pre;" direction="ltr" dominant-baseline="text-before-edge">Encoder</text></g><g stroke-linecap="round"><g transform="translate(554.9265836599576 133.02065527379352) rotate(0 -0.5053392904936231 17.694311379243743)"><path d="M-0.13 -0.11 C-0.3 5.79, -0.84 29.59, -0.98 35.5 M0.07 0.15 C-0.11 6.01, -0.89 29.4, -1.08 35.29" stroke="#000000" stroke-width="1" fill="none"></path></g></g><mask></mask><g stroke-linecap="round"><g transform="translate(478.4065029920397 184.4675840307856) rotate(0 37.128907694169584 -7.901216778703144)"><path d="M0.03 0.12 C12.46 -2.51, 62.04 -13.25, 74.44 -15.92 M-0.19 0.01 C12.24 -2.58, 61.88 -13.09, 74.3 -15.71" stroke="#000000" stroke-width="1" fill="none"></path></g></g><mask></mask><g stroke-linecap="round"><g transform="translate(477.08912132228147 108.43870173021196) rotate(0 -0.5230082762586221 37.990173758770595)"><path d="M0.02 -0.06 C-0.15 12.6, -0.79 63.31, -0.96 76.02 M-0.16 -0.21 C-0.34 12.46, -0.9 63.5, -1.06 76.19" stroke="#000000" stroke-width="1" fill="none"></path></g></g><mask></mask><g stroke-linecap="round"><g transform="translate(554.1961103389914 132.48160191572515) rotate(0 -37.46714929084965 -11.605310588440943)"><path d="M0.05 -0.05 C-12.42 -3.85, -62.36 -19.05, -74.8 -22.88 M-0.18 -0.26 C-12.69 -4.11, -62.58 -19.41, -74.99 -23.16" stroke="#000000" stroke-width="1" fill="none"></path></g></g><mask></mask><g transform="translate(484.63945371561147 139.73463330721393) rotate(0 31.43199920654297 10)"><text x="0" y="0" font-family="Virgil, Segoe UI Emoji" font-size="16px" fill="#000000" text-anchor="start" style="white-space: pre;" direction="ltr" dominant-baseline="text-before-edge">Decoder</text></g><g transform="translate(73.28015175366045 238.95846923932595) rotate(0 6.803999900817871 17.5)"><text x="0" y="0" font-family="Virgil, Segoe UI Emoji" font-size="28px" fill="#000000" text-anchor="start" style="white-space: pre;" direction="ltr" dominant-baseline="text-before-edge">f</text></g><g transform="translate(312.3100268931846 244.29977840444667) rotate(0 8.008000373840332 17.5)"><text x="0" y="0" font-family="Virgil, Segoe UI Emoji" font-size="28px" fill="#000000" text-anchor="start" style="white-space: pre;" direction="ltr" dominant-baseline="text-before-edge">z</text></g><g transform="translate(272.586354396159 92.9130916512072) rotate(0 50.0359992980957 35)"><text x="0" y="0" font-family="Virgil, Segoe UI Emoji" font-size="28px" fill="#000000" text-anchor="start" style="white-space: pre;" direction="ltr" dominant-baseline="text-before-edge">latent </text><text x="0" y="35" font-family="Virgil, Segoe UI Emoji" font-size="28px" fill="#000000" text-anchor="start" style="white-space: pre;" direction="ltr" dominant-baseline="text-before-edge">space</text></g><g transform="translate(10 10) rotate(0 73.94800567626953 52.5)"><text x="73.94800567626953" y="0" font-family="Virgil, Segoe UI Emoji" font-size="28px" fill="#000000" text-anchor="middle" style="white-space: pre;" direction="ltr" dominant-baseline="text-before-edge">discretized</text><text x="73.94800567626953" y="35" font-family="Virgil, Segoe UI Emoji" font-size="28px" fill="#000000" text-anchor="middle" style="white-space: pre;" direction="ltr" dominant-baseline="text-before-edge">physical </text><text x="73.94800567626953" y="70" font-family="Virgil, Segoe UI Emoji" font-size="28px" fill="#000000" text-anchor="middle" style="white-space: pre;" direction="ltr" dominant-baseline="text-before-edge">space</text></g><g stroke-linecap="round" transform="translate(429.0103018172805 147.064221052025) rotate(0 16.748076586277648 17.75001125594696)"><path d="M2.23 1.94 C2.23 1.94, 2.23 1.94, 2.23 1.94 M2.23 1.94 C2.23 1.94, 2.23 1.94, 2.23 1.94 M0.66 9.84 C2.54 7.93, 4.77 5.51, 8.53 0.79 M0.66 9.84 C2.99 6.84, 5.71 4.1, 8.53 0.79 M0.39 16.24 C5.38 10.09, 11.02 4.56, 14.17 0.39 M0.39 16.24 C3.91 12.1, 7.89 7.37, 14.17 0.39 M0.79 21.89 C8.36 13.67, 14.89 4.62, 19.16 0.75 M0.79 21.89 C5.19 16.84, 9.23 11.93, 19.16 0.75 M0.53 28.28 C6 21.88, 12.13 15.2, 24.8 0.36 M0.53 28.28 C6.25 21.69, 12.12 14.93, 24.8 0.36 M1.58 33.17 C10.75 22.74, 20.25 11.72, 29.13 1.47 M1.58 33.17 C12.25 21.33, 22.81 9.29, 29.13 1.47 M5.25 35.04 C12.23 27.19, 19.92 19.09, 32.81 3.34 M5.25 35.04 C15.85 22.68, 26.62 10.19, 32.81 3.34 M10.24 35.4 C19.33 24.67, 27.93 14.8, 33.86 8.23 M10.24 35.4 C18.99 25.2, 28.12 14.58, 33.86 8.23 M15.23 35.76 C22.67 27.03, 29.46 19.05, 33.6 14.63 M15.23 35.76 C19.26 30.69, 24.07 25.77, 33.6 14.63 M20.87 35.37 C25.35 30.03, 30.69 24.31, 33.33 21.03 M20.87 35.37 C25.34 30.19, 29.63 25.24, 33.33 21.03 M25.86 35.73 C28.49 32.78, 31.29 29.83, 33.73 26.67 M25.86 35.73 C27.7 33.51, 29.96 31.06, 33.73 26.67" stroke="#228be6" stroke-width="0.5" fill="none"></path><path d="M8.37 0 C12.41 -0.19, 15.78 -0.49, 25.12 0 M8.37 0 C12.27 0.12, 15.95 0.15, 25.12 0 M25.12 0 C30.36 0.25, 33.46 3.03, 33.5 8.37 M25.12 0 C30.32 0.13, 33.34 3.34, 33.5 8.37 M33.5 8.37 C33.62 12.41, 33.5 16.94, 33.5 27.13 M33.5 8.37 C33.36 15.69, 33.77 23.34, 33.5 27.13 M33.5 27.13 C33.1 32.36, 30.37 35.99, 25.12 35.5 M33.5 27.13 C33.77 32.15, 30.52 35.83, 25.12 35.5 M25.12 35.5 C20.87 35.1, 16.88 35.81, 8.37 35.5 M25.12 35.5 C19 35.7, 13.13 35.31, 8.37 35.5 M8.37 35.5 C3.14 35.38, -0.04 32.93, 0 27.13 M8.37 35.5 C2.74 35.78, 0.48 33.13, 0 27.13 M0 27.13 C0.1 22.77, 0.09 17.3, 0 8.37 M0 27.13 C-0.24 21.82, 0.01 16.43, 0 8.37 M0 8.37 C0.13 2.45, 2.32 0.2, 8.37 0 M0 8.37 C-0.37 2.54, 3.27 0.01, 8.37 0" stroke="#000000" stroke-width="1" fill="none"></path></g><g transform="translate(441.1823781899351 154.81423230797202) rotate(0 4.576000213623047 10)"><text x="4.576000213623047" y="0" font-family="Virgil, Segoe UI Emoji" font-size="16px" fill="#1e1e1e" text-anchor="middle" style="white-space: pre;" direction="ltr" dominant-baseline="text-before-edge">z</text></g><g stroke-linecap="round" transform="translate(426.3755384777635 106.95709005583171) rotate(0 18.394803673475792 18.143564972173067)"><path d="M2.41 2.1 C2.41 2.1, 2.41 2.1, 2.41 2.1 M2.41 2.1 C2.41 2.1, 2.41 2.1, 2.41 2.1 M0.84 10.01 C3.41 6.96, 6.15 3.66, 9.37 0.2 M0.84 10.01 C3.44 7.23, 5.68 4.35, 9.37 0.2 M0.58 16.4 C4.71 11.09, 8.41 6.95, 14.36 0.56 M0.58 16.4 C6.1 10.47, 11.11 4.15, 14.36 0.56 M0.32 22.8 C4.47 17.79, 9.43 12.72, 20 0.16 M0.32 22.8 C4.38 18.19, 8.11 13.51, 20 0.16 M0.71 28.44 C9.57 18.08, 18.39 8.59, 24.99 0.52 M0.71 28.44 C10.24 17.1, 20.18 6.32, 24.99 0.52 M1.76 33.33 C7.78 26.93, 13.51 20.12, 29.97 0.88 M1.76 33.33 C8.37 25.38, 15.15 18.23, 29.97 0.88 M4.78 35.96 C13.78 25.76, 23.11 15.93, 34.3 2 M4.78 35.96 C14.02 24.85, 23.28 14.12, 34.3 2 M9.77 36.32 C20.2 24.32, 29.96 12.01, 36.67 5.37 M9.77 36.32 C20.34 24.6, 30.18 12.69, 36.67 5.37 M14.76 36.68 C22.23 27.37, 30.67 18.87, 37.06 11.02 M14.76 36.68 C19.6 31.09, 24.77 25.52, 37.06 11.02 M20.4 36.28 C25.99 30.08, 30.61 24.18, 37.46 16.66 M20.4 36.28 C25.3 30.51, 30.93 24.33, 37.46 16.66 M25.39 36.64 C29.26 32.59, 32.01 28.67, 37.2 23.06 M25.39 36.64 C28.71 32.56, 32.28 28.95, 37.2 23.06 M31.03 36.25 C32.49 34.44, 34.51 32.33, 36.93 29.46 M31.03 36.25 C32.33 34.67, 33.74 33.23, 36.93 29.46" stroke="#ffec99" stroke-width="0.5" fill="none"></path><path d="M9.07 0 C13.46 -0.08, 17.97 -0.51, 27.72 0 M9.07 0 C14.9 0.05, 20.95 -0.01, 27.72 0 M27.72 0 C33.78 -0.44, 37.13 2.53, 36.79 9.07 M27.72 0 C33.83 0.34, 37.13 3.01, 36.79 9.07 M36.79 9.07 C37.31 15.9, 36.43 22.26, 36.79 27.22 M36.79 9.07 C36.66 14.27, 36.86 19.05, 36.79 27.22 M36.79 27.22 C37.13 33.15, 34.06 36.68, 27.72 36.29 M36.79 27.22 C36.64 32.8, 33.19 36.19, 27.72 36.29 M27.72 36.29 C21.92 35.86, 16.57 35.99, 9.07 36.29 M27.72 36.29 C22.02 36.21, 15.64 36.12, 9.07 36.29 M9.07 36.29 C2.79 36.49, 0.46 33.3, 0 27.22 M9.07 36.29 C2.98 36.13, -0.5 33.77, 0 27.22 M0 27.22 C0.14 19.91, 0.54 14.02, 0 9.07 M0 27.22 C0.2 22.83, 0.04 18.04, 0 9.07 M0 9.07 C0.42 2.99, 3.4 0.47, 9.07 0 M0 9.07 C-0.27 3.68, 3.68 -0.21, 9.07 0" stroke="#1e1e1e" stroke-width="1" fill="none"></path></g><g transform="translate(431.49834183843404 115.10065502800478) rotate(0 13.272000312805176 10)"><text x="13.272000312805176" y="0" font-family="Virgil, Segoe UI Emoji" font-size="16px" fill="#1e1e1e" text-anchor="middle" style="white-space: pre;" direction="ltr" dominant-baseline="text-before-edge">x_1</text></g><g stroke-linecap="round" transform="translate(431.97441057423737 255.45536835538678) rotate(0 16.748076586277648 17.75001125594696)"><path d="M2.23 1.94 C2.23 1.94, 2.23 1.94, 2.23 1.94 M2.23 1.94 C2.23 1.94, 2.23 1.94, 2.23 1.94 M0.66 9.84 C3.17 7.09, 5.65 3.85, 8.53 0.79 M0.66 9.84 C2.37 8.03, 4.09 6.11, 8.53 0.79 M0.39 16.24 C4.04 11.59, 7.08 7.62, 14.17 0.39 M0.39 16.24 C4.74 11.14, 9.28 6.27, 14.17 0.39 M0.79 21.89 C7.6 13.13, 15.43 5.7, 19.16 0.75 M0.79 21.89 C5.9 16.08, 10.86 10.31, 19.16 0.75 M0.53 28.28 C10.64 17.42, 19.27 5.75, 24.8 0.36 M0.53 28.28 C6.91 20.74, 13.98 13, 24.8 0.36 M1.58 33.17 C9.11 23.89, 18.06 14.87, 29.13 1.47 M1.58 33.17 C7.88 25.72, 14.35 18.66, 29.13 1.47 M5.25 35.04 C12.98 26.86, 20.19 17.8, 32.81 3.34 M5.25 35.04 C14.54 24.61, 23.16 14.13, 32.81 3.34 M10.24 35.4 C15.91 29.46, 20.03 23.13, 33.86 8.23 M10.24 35.4 C19.04 24.95, 28.39 14.96, 33.86 8.23 M15.23 35.76 C22.52 27.87, 29.09 19.33, 33.6 14.63 M15.23 35.76 C19.11 30.89, 23.1 26.76, 33.6 14.63 M20.87 35.37 C24.13 31.14, 26.93 28.36, 33.33 21.03 M20.87 35.37 C23.46 32.21, 26.54 29.03, 33.33 21.03 M25.86 35.73 C28.32 33.25, 30.64 30.73, 33.73 26.67 M25.86 35.73 C28.6 32.71, 31.28 29.51, 33.73 26.67" stroke="#228be6" stroke-width="0.5" fill="none"></path><path d="M8.37 0 C13.07 0.05, 16.63 -0.1, 25.12 0 M8.37 0 C14.76 -0.18, 21.07 0.09, 25.12 0 M25.12 0 C31.11 0.01, 33.08 2.34, 33.5 8.37 M25.12 0 C30.87 -0.32, 33.01 2.89, 33.5 8.37 M33.5 8.37 C33.87 13.93, 33.48 20.04, 33.5 27.13 M33.5 8.37 C33.6 14.83, 33.22 21.77, 33.5 27.13 M33.5 27.13 C33.77 32.41, 30.83 35.19, 25.12 35.5 M33.5 27.13 C33.76 33.18, 30.64 36.03, 25.12 35.5 M25.12 35.5 C21.68 35.57, 18.06 35.92, 8.37 35.5 M25.12 35.5 C21.4 35.74, 18.12 35.42, 8.37 35.5 M8.37 35.5 C2.85 35.07, -0.23 32.94, 0 27.13 M8.37 35.5 C2.3 35.43, 0.56 32.81, 0 27.13 M0 27.13 C0.35 21.7, -0.35 15.49, 0 8.37 M0 27.13 C-0.24 21.95, 0.24 16.89, 0 8.37 M0 8.37 C-0.35 2.7, 3.11 0.36, 8.37 0 M0 8.37 C0.4 2.64, 2.23 0.39, 8.37 0" stroke="#000000" stroke-width="1" fill="none"></path></g><g transform="translate(444.14648694689197 263.2053796113338) rotate(0 4.576000213623047 10)"><text x="4.576000213623047" y="0" font-family="Virgil, Segoe UI Emoji" font-size="16px" fill="#1e1e1e" text-anchor="middle" style="white-space: pre;" direction="ltr" dominant-baseline="text-before-edge">z</text></g><g stroke-linecap="round" transform="translate(429.3396472347205 215.34823735919372) rotate(0 18.394803673475792 18.143564972173067)"><path d="M2.41 2.1 C2.41 2.1, 2.41 2.1, 2.41 2.1 M2.41 2.1 C2.41 2.1, 2.41 2.1, 2.41 2.1 M0.84 10.01 C3.57 6.54, 7.05 3.14, 9.37 0.2 M0.84 10.01 C3.75 6.63, 6.69 3.09, 9.37 0.2 M0.58 16.4 C3.55 13.42, 6.82 9.89, 14.36 0.56 M0.58 16.4 C4.89 11.65, 8.65 6.82, 14.36 0.56 M0.32 22.8 C4.36 18.38, 8.5 13.45, 20 0.16 M0.32 22.8 C5.49 17.16, 9.92 11.75, 20 0.16 M0.71 28.44 C8.7 19.74, 17.1 9.47, 24.99 0.52 M0.71 28.44 C9.33 18.49, 18.28 8.15, 24.99 0.52 M1.76 33.33 C10.05 23.66, 19.37 13.18, 29.97 0.88 M1.76 33.33 C8.8 25.32, 16.25 17, 29.97 0.88 M4.78 35.96 C15.64 23.84, 26.02 11.8, 34.3 2 M4.78 35.96 C13.36 25.94, 22.23 16.15, 34.3 2 M9.77 36.32 C18.14 27.36, 25.93 18.02, 36.67 5.37 M9.77 36.32 C17.19 27.84, 24.01 19.73, 36.67 5.37 M14.76 36.68 C21.24 28.16, 29.01 20.33, 37.06 11.02 M14.76 36.68 C19.42 30.92, 24.14 25.74, 37.06 11.02 M20.4 36.28 C23.55 31.85, 26.96 27.53, 37.46 16.66 M20.4 36.28 C25.84 30.2, 31.55 23.86, 37.46 16.66 M25.39 36.64 C29.66 31.8, 33.82 27.31, 37.2 23.06 M25.39 36.64 C29.91 31.43, 34.52 26.12, 37.2 23.06 M31.03 36.25 C32.58 34.9, 33.57 33.36, 36.93 29.46 M31.03 36.25 C32.54 34.47, 34.03 32.8, 36.93 29.46" stroke="#ffec99" stroke-width="0.5" fill="none"></path><path d="M9.07 0 C15.37 0.1, 21.19 0.12, 27.72 0 M9.07 0 C13.67 -0.03, 17.65 -0.26, 27.72 0 M27.72 0 C33.92 -0.3, 36.33 3.12, 36.79 9.07 M27.72 0 C33.86 0.5, 37.16 3.47, 36.79 9.07 M36.79 9.07 C37.07 12.92, 36.42 17.82, 36.79 27.22 M36.79 9.07 C36.88 13.22, 36.8 17.51, 36.79 27.22 M36.79 27.22 C37.04 33.71, 33.7 36.78, 27.72 36.29 M36.79 27.22 C36.14 33.25, 33.58 36.25, 27.72 36.29 M27.72 36.29 C21.3 36.17, 16.1 35.95, 9.07 36.29 M27.72 36.29 C20.36 36.05, 12.83 36.38, 9.07 36.29 M9.07 36.29 C2.56 36.22, 0.53 33.35, 0 27.22 M9.07 36.29 C3.05 36.38, 0.35 33.74, 0 27.22 M0 27.22 C-0.14 20.92, 0.09 13.96, 0 9.07 M0 27.22 C-0.22 22.85, 0.1 18.75, 0 9.07 M0 9.07 C0.37 2.89, 2.5 0.37, 9.07 0 M0 9.07 C0.1 2.74, 3.19 0.36, 9.07 0" stroke="#1e1e1e" stroke-width="1" fill="none"></path></g><g transform="translate(434.87845096160197 223.49180233136678) rotate(0 12.855999946594238 10)"><text x="12.855999946594238" y="0" font-family="Virgil, Segoe UI Emoji" font-size="16px" fill="#1e1e1e" text-anchor="middle" style="white-space: pre;" direction="ltr" dominant-baseline="text-before-edge">x_i</text></g><g stroke-linecap="round" transform="translate(434.60917391375426 375.9957911382944) rotate(0 16.748076586277648 17.75001125594696)"><path d="M2.23 1.94 C2.23 1.94, 2.23 1.94, 2.23 1.94 M2.23 1.94 C2.23 1.94, 2.23 1.94, 2.23 1.94 M0.66 9.84 C3.5 6.86, 6.11 3.47, 8.53 0.79 M0.66 9.84 C3.1 7.03, 5.57 4.2, 8.53 0.79 M0.39 16.24 C5.74 11.14, 9.79 5.02, 14.17 0.39 M0.39 16.24 C6.12 9.88, 11.45 3.42, 14.17 0.39 M0.79 21.89 C5.52 16.28, 11.11 10.4, 19.16 0.75 M0.79 21.89 C8.09 13.56, 14.92 5.47, 19.16 0.75 M0.53 28.28 C5.85 22.66, 10.75 16.37, 24.8 0.36 M0.53 28.28 C6.29 21.38, 12.19 15.11, 24.8 0.36 M1.58 33.17 C10.94 22.33, 21.14 10.95, 29.13 1.47 M1.58 33.17 C8.21 25.32, 15.14 17.52, 29.13 1.47 M5.25 35.04 C11.56 27.81, 18.48 20.33, 32.81 3.34 M5.25 35.04 C16.11 22.86, 26.51 10.03, 32.81 3.34 M10.24 35.4 C14.69 30.17, 20.15 23.7, 33.86 8.23 M10.24 35.4 C18.52 25.58, 26.74 16.19, 33.86 8.23 M15.23 35.76 C21.81 28.81, 27.62 21.44, 33.6 14.63 M15.23 35.76 C19.86 30.08, 24.5 24.98, 33.6 14.63 M20.87 35.37 C25.9 30.5, 30.42 25.02, 33.33 21.03 M20.87 35.37 C24.8 30.84, 28.55 26.23, 33.33 21.03 M25.86 35.73 C29.02 32.39, 31.92 29.27, 33.73 26.67 M25.86 35.73 C28.42 32.54, 31.28 29.59, 33.73 26.67" stroke="#228be6" stroke-width="0.5" fill="none"></path><path d="M8.37 0 C12.87 -0.49, 17.83 0.26, 25.12 0 M8.37 0 C13.48 -0.12, 18.83 0.18, 25.12 0 M25.12 0 C30.31 -0.13, 33.3 2.84, 33.5 8.37 M25.12 0 C30.37 -0.51, 33.42 2.92, 33.5 8.37 M33.5 8.37 C33.14 12.7, 33.44 17.83, 33.5 27.13 M33.5 8.37 C33.65 14.62, 33.57 20.89, 33.5 27.13 M33.5 27.13 C33.7 32.4, 30.82 35.19, 25.12 35.5 M33.5 27.13 C33.36 32.59, 30.36 35.22, 25.12 35.5 M25.12 35.5 C18.98 35.34, 12.73 35.72, 8.37 35.5 M25.12 35.5 C18.52 35.46, 11.94 35.54, 8.37 35.5 M8.37 35.5 C2.87 35.49, 0.31 33.06, 0 27.13 M8.37 35.5 C2.86 35.41, 0.16 32.8, 0 27.13 M0 27.13 C-0.46 21.53, -0.1 15.91, 0 8.37 M0 27.13 C0.24 20.66, 0.07 14.44, 0 8.37 M0 8.37 C-0.48 2.33, 2.83 -0.06, 8.37 0 M0 8.37 C-0.03 2.24, 2.91 -0.27, 8.37 0" stroke="#000000" stroke-width="1" fill="none"></path></g><g transform="translate(446.78125028640886 383.7458023942414) rotate(0 4.576000213623047 10)"><text x="4.576000213623047" y="0" font-family="Virgil, Segoe UI Emoji" font-size="16px" fill="#1e1e1e" text-anchor="middle" style="white-space: pre;" direction="ltr" dominant-baseline="text-before-edge">z</text></g><g stroke-linecap="round" transform="translate(432.63310140911665 334.5712784723422) rotate(0 20.041530760673993 17.75440081632803)"><path d="M2.36 2.05 C2.36 2.05, 2.36 2.05, 2.36 2.05 M2.36 2.05 C2.36 2.05, 2.36 2.05, 2.36 2.05 M0.79 9.96 C3.94 6.74, 6.95 2.88, 9.32 0.15 M0.79 9.96 C3.37 7.22, 5.68 4.4, 9.32 0.15 M0.53 16.36 C6.6 9.61, 11.54 4.25, 14.31 0.51 M0.53 16.36 C4.13 11.87, 7.85 7.72, 14.31 0.51 M0.27 22.76 C6.68 15.99, 11.6 9.51, 19.95 0.12 M0.27 22.76 C4.38 18.07, 8.92 12.86, 19.95 0.12 M0.66 28.4 C9.4 18.41, 19.17 7.66, 24.94 0.48 M0.66 28.4 C5.76 22.39, 10.52 16.64, 24.94 0.48 M2.37 32.53 C11.44 22.25, 21.52 10.66, 30.58 0.08 M2.37 32.53 C11 22.4, 19.78 12.09, 30.58 0.08 M5.39 35.16 C16.69 23.18, 26.82 10.6, 35.57 0.44 M5.39 35.16 C16.58 22.07, 28.37 8.81, 35.57 0.44 M10.37 35.52 C21.39 23.66, 32.28 10.89, 38.58 3.07 M10.37 35.52 C17.06 27.84, 23.76 20.68, 38.58 3.07 M15.36 35.88 C22.87 27.4, 31.24 17.85, 39.63 7.95 M15.36 35.88 C21.34 29.45, 26.93 22.93, 39.63 7.95 M21 35.48 C28.44 27.06, 35.69 18.46, 40.03 13.6 M21 35.48 C27.01 29.1, 32.67 22.5, 40.03 13.6 M25.99 35.84 C30.62 30.49, 34.49 25.13, 40.42 19.24 M25.99 35.84 C29.76 31.55, 33.13 27.76, 40.42 19.24 M31.63 35.45 C33.16 33.27, 35.17 30.83, 40.16 25.64 M31.63 35.45 C35 31.45, 38.43 27.8, 40.16 25.64" stroke="#ffec99" stroke-width="0.5" fill="none"></path><path d="M8.88 0 C13.47 0.35, 18.4 -0.6, 31.21 0 M8.88 0 C14.65 -0.13, 20.73 -0.04, 31.21 0 M31.21 0 C36.82 -0.47, 40.02 3.08, 40.08 8.88 M31.21 0 C36.73 0.18, 40.49 2.47, 40.08 8.88 M40.08 8.88 C40.22 13.63, 40.26 18.41, 40.08 26.63 M40.08 8.88 C40.19 14.61, 40.15 20.49, 40.08 26.63 M40.08 26.63 C39.96 32.44, 36.81 35.25, 31.21 35.51 M40.08 26.63 C40.47 32.96, 36.46 35.28, 31.21 35.51 M31.21 35.51 C25.57 35.84, 18.63 35.3, 8.88 35.51 M31.21 35.51 C24.74 35.52, 18.35 35.71, 8.88 35.51 M8.88 35.51 C3.02 35.43, 0.15 32.63, 0 26.63 M8.88 35.51 C2.96 36.09, 0.24 32.01, 0 26.63 M0 26.63 C0.17 20.81, 0.18 16.2, 0 8.88 M0 26.63 C-0.23 22.67, 0.01 19.11, 0 8.88 M0 8.88 C-0.03 2.45, 3.07 -0.25, 8.88 0 M0 8.88 C-0.5 2.77, 3.08 -0.13, 8.88 0" stroke="#1e1e1e" stroke-width="1" fill="none"></path></g><g transform="translate(437.8346320172027 342.32567928867024) rotate(0 14.84000015258789 10)"><text x="14.84000015258789" y="0" font-family="Virgil, Segoe UI Emoji" font-size="16px" fill="#1e1e1e" text-anchor="middle" style="white-space: pre;" direction="ltr" dominant-baseline="text-before-edge">x_n</text></g><g stroke-linecap="round" transform="translate(572.9342492384025 132.25247889989703) rotate(0 18.394803673475792 18.143564972173067)"><path d="M2.41 2.1 C2.41 2.1, 2.41 2.1, 2.41 2.1 M2.41 2.1 C2.41 2.1, 2.41 2.1, 2.41 2.1 M0.84 10.01 C3.81 6.59, 6.69 3.13, 9.37 0.2 M0.84 10.01 C2.77 7.79, 4.93 5.29, 9.37 0.2 M0.58 16.4 C4.72 12.2, 7.81 7.79, 14.36 0.56 M0.58 16.4 C4.32 11.54, 8.61 7.19, 14.36 0.56 M0.32 22.8 C8.04 14.17, 15.89 5.55, 20 0.16 M0.32 22.8 C5.03 17.53, 9.74 12.42, 20 0.16 M0.71 28.44 C8.72 19.21, 17 10.03, 24.99 0.52 M0.71 28.44 C8.37 20.09, 15.7 11.55, 24.99 0.52 M1.76 33.33 C12.82 21.09, 22.09 9.57, 29.97 0.88 M1.76 33.33 C12.69 20.78, 23.94 8.04, 29.97 0.88 M4.78 35.96 C13.53 25.46, 22.36 15.08, 34.3 2 M4.78 35.96 C12.48 27.33, 19.43 18.96, 34.3 2 M9.77 36.32 C18.9 25.32, 28.65 14.45, 36.67 5.37 M9.77 36.32 C15.79 29.52, 20.94 23.01, 36.67 5.37 M14.76 36.68 C19.26 30.8, 24.74 24.89, 37.06 11.02 M14.76 36.68 C19.85 31.49, 24.56 25.77, 37.06 11.02 M20.4 36.28 C23.8 31.44, 27.44 27.36, 37.46 16.66 M20.4 36.28 C25.45 30.6, 30.88 24.32, 37.46 16.66 M25.39 36.64 C28.68 32.5, 31.45 28.99, 37.2 23.06 M25.39 36.64 C28.25 32.92, 31.43 29.73, 37.2 23.06 M31.03 36.25 C32.93 34.07, 34.65 32.1, 36.93 29.46 M31.03 36.25 C32.71 34.21, 34.6 32.13, 36.93 29.46" stroke="#82c91e" stroke-width="0.5" fill="none"></path><path d="M9.07 0 C15.94 -0.59, 22.39 0.26, 27.72 0 M9.07 0 C13.37 -0.08, 18.26 -0.22, 27.72 0 M27.72 0 C33.34 -0.2, 36.28 3.24, 36.79 9.07 M27.72 0 C34.04 0.6, 37.45 3.06, 36.79 9.07 M36.79 9.07 C36.55 15.71, 37.28 22.37, 36.79 27.22 M36.79 9.07 C36.53 13.48, 36.71 17.48, 36.79 27.22 M36.79 27.22 C36.61 32.97, 33.97 36.74, 27.72 36.29 M36.79 27.22 C36.51 33.82, 33.18 35.81, 27.72 36.29 M27.72 36.29 C22.55 36.55, 18.28 36.62, 9.07 36.29 M27.72 36.29 C20.58 36.46, 13.37 36.44, 9.07 36.29 M9.07 36.29 C2.68 35.89, -0.55 32.79, 0 27.22 M9.07 36.29 C2.38 36.16, 0.39 33.56, 0 27.22 M0 27.22 C0.39 22.17, 0.42 17.48, 0 9.07 M0 27.22 C-0.12 22.44, -0.15 17.49, 0 9.07 M0 9.07 C-0.41 3.28, 3.34 -0.53, 9.07 0 M0 9.07 C-0.26 2.81, 2.99 0.65, 9.07 0" stroke="#1e1e1e" stroke-width="1" fill="none"></path></g><g transform="translate(578.6650524007088 140.3960438720701) rotate(0 12.664000511169377 10)"><text x="12.664000511169434" y="0" font-family="Virgil, Segoe UI Emoji" font-size="16px" fill="#1e1e1e" text-anchor="middle" style="white-space: pre;" direction="ltr" dominant-baseline="text-before-edge">f_1</text></g><g stroke-linecap="round"><g transform="translate(554.3072293293284 239.08490306316878) rotate(0 -0.5168804596458472 17.74059453009272)"><path d="M0.08 -0.15 C-0.06 5.74, -0.84 29.51, -1 35.43 M-0.06 0.1 C-0.21 6.01, -0.98 29.73, -1.11 35.63" stroke="#000000" stroke-width="1" fill="none"></path></g></g><mask></mask><g stroke-linecap="round"><g transform="translate(479.10453033116914 287.89706848064395) rotate(0 37.19381498570772 -6.290339125591572)"><path d="M0 0.02 C12.42 -2.05, 62.2 -10.52, 74.6 -12.6 M-0.21 -0.12 C12.19 -2.15, 62.13 -10.29, 74.55 -12.4" stroke="#000000" stroke-width="1" fill="none"></path></g></g><mask></mask><g stroke-linecap="round"><g transform="translate(476.46976699165225 214.50294951958733) rotate(0 -0.49242228248522224 37.966594535064985)"><path d="M0.15 -0.04 C-0.02 12.64, -0.8 63.45, -1.01 76.13 M0.04 -0.19 C-0.15 12.45, -0.98 63.18, -1.13 75.9" stroke="#000000" stroke-width="1" fill="none"></path></g></g><mask></mask><g stroke-linecap="round"><g transform="translate(553.5767560083622 238.54584970510052) rotate(0 -39.14028502053236 -11.847004730702452)"><path d="M-0.02 0.11 C-13.1 -3.85, -65.27 -19.83, -78.26 -23.8 M-0.29 -0.03 C-13.33 -3.95, -64.91 -19.64, -77.87 -23.55" stroke="#000000" stroke-width="1" fill="none"></path></g></g><mask></mask><g transform="translate(484.02009938498236 245.7988810965893) rotate(0 31.43199920654297 10)"><text x="0" y="0" font-family="Virgil, Segoe UI Emoji" font-size="16px" fill="#000000" text-anchor="start" style="white-space: pre;" direction="ltr" dominant-baseline="text-before-edge">Decoder</text></g><g stroke-linecap="round" transform="translate(571.6562040728944 238.9754175241518) rotate(0 18.394803673475792 18.143564972173067)"><path d="M2.41 2.1 C2.41 2.1, 2.41 2.1, 2.41 2.1 M2.41 2.1 C2.41 2.1, 2.41 2.1, 2.41 2.1 M0.84 10.01 C2.83 7.11, 5.23 4.26, 9.37 0.2 M0.84 10.01 C3.06 7.44, 5.3 4.88, 9.37 0.2 M0.58 16.4 C4.59 12.17, 8.56 7.45, 14.36 0.56 M0.58 16.4 C4.42 11.43, 8.99 6.87, 14.36 0.56 M0.32 22.8 C6.83 14.31, 14.36 6.99, 20 0.16 M0.32 22.8 C6.99 15.56, 13.53 7.72, 20 0.16 M0.71 28.44 C5.9 22.03, 12.04 16.15, 24.99 0.52 M0.71 28.44 C5.51 22.95, 10.78 17.18, 24.99 0.52 M1.76 33.33 C11.1 22.74, 20.51 11.55, 29.97 0.88 M1.76 33.33 C7.31 26.72, 13.08 20.22, 29.97 0.88 M4.78 35.96 C10.66 28.61, 17.46 21.41, 34.3 2 M4.78 35.96 C14.16 25.06, 23.74 14.38, 34.3 2 M9.77 36.32 C14.78 29.28, 21.13 23.25, 36.67 5.37 M9.77 36.32 C18.01 26.86, 26.12 17.02, 36.67 5.37 M14.76 36.68 C22.02 28.69, 28.89 20.49, 37.06 11.02 M14.76 36.68 C22.55 27.43, 30.99 17.93, 37.06 11.02 M20.4 36.28 C27.01 28.89, 32.5 22.62, 37.46 16.66 M20.4 36.28 C26.78 28.94, 33.63 21.2, 37.46 16.66 M25.39 36.64 C29.7 32.05, 33.79 27.39, 37.2 23.06 M25.39 36.64 C27.77 33.7, 30.67 30.62, 37.2 23.06 M31.03 36.25 C32.88 34.32, 34.11 32.46, 36.93 29.46 M31.03 36.25 C33.3 33.64, 35.64 30.93, 36.93 29.46" stroke="#82c91e" stroke-width="0.5" fill="none"></path><path d="M9.07 0 C12.98 0.31, 17.2 0.36, 27.72 0 M9.07 0 C15.12 0.14, 20.97 -0.28, 27.72 0 M27.72 0 C34.24 0.03, 36.7 2.48, 36.79 9.07 M27.72 0 C33.53 -0.24, 37.12 3.55, 36.79 9.07 M36.79 9.07 C36.27 15.54, 36.97 20.89, 36.79 27.22 M36.79 9.07 C36.76 15.97, 37.05 22.13, 36.79 27.22 M36.79 27.22 C36.42 33.83, 33.88 36.31, 27.72 36.29 M36.79 27.22 C36.95 33.6, 33.9 35.98, 27.72 36.29 M27.72 36.29 C22.96 36.74, 18.49 35.98, 9.07 36.29 M27.72 36.29 C21.27 36.41, 14.5 36.35, 9.07 36.29 M9.07 36.29 C3.03 36.39, -0.38 33.75, 0 27.22 M9.07 36.29 C2.92 36.84, 0.21 33.51, 0 27.22 M0 27.22 C-0.21 20.83, 0.05 15.29, 0 9.07 M0 27.22 C-0.12 22.04, 0.13 16.76, 0 9.07 M0 9.07 C0.12 2.45, 3.56 -0.45, 9.07 0 M0 9.07 C-0.47 2.44, 2.38 -0.14, 9.07 0" stroke="#1e1e1e" stroke-width="1" fill="none"></path></g><g transform="translate(577.8030076014117 247.11898249632486) rotate(0 12.24800014495844 10)"><text x="12.248000144958496" y="0" font-family="Virgil, Segoe UI Emoji" font-size="16px" fill="#1e1e1e" text-anchor="middle" style="white-space: pre;" direction="ltr" dominant-baseline="text-before-edge">f_i</text></g><g stroke-linecap="round"><g transform="translate(559.5767560083624 360.28401668095546) rotate(0 0.440285655740297 18.33900592610189)"><path d="M-0.03 0.03 C0.15 6.15, 0.94 30.67, 1.1 36.76 M-0.22 -0.09 C-0.06 5.99, 0.87 30.39, 1.05 36.52" stroke="#000000" stroke-width="1" fill="none"></path></g></g><mask></mask><g stroke-linecap="round"><g transform="translate(483.0566753404446 411.73094543794775) rotate(0 37.20359524237887 -7.966068828874029)"><path d="M0.16 0.05 C12.57 -2.62, 62.02 -13.33, 74.39 -15.98 M0.01 -0.09 C12.39 -2.74, 61.85 -13.21, 74.23 -15.81" stroke="#000000" stroke-width="1" fill="none"></path></g></g><mask></mask><g stroke-linecap="round"><g transform="translate(481.73929367068627 335.702063137374) rotate(0 0.7119564793928248 38.37820037421989)"><path d="M-0.02 -0.11 C0.23 12.67, 1.36 63.86, 1.64 76.69 M-0.22 0.16 C0.01 12.96, 1.23 64.12, 1.53 76.86" stroke="#000000" stroke-width="1" fill="none"></path></g></g><mask></mask><g stroke-linecap="round"><g transform="translate(560.8223551920343 359.0862724880079) rotate(0 -40.424123942177914 -10.632484669753978)"><path d="M0.01 -0.04 C-13.43 -3.5, -67.21 -17.42, -80.69 -20.94 M-0.24 -0.24 C-13.71 -3.75, -67.49 -17.77, -80.86 -21.23" stroke="#000000" stroke-width="1" fill="none"></path></g></g><mask></mask><g transform="translate(489.2896260640164 366.997994714376) rotate(0 31.43199920654297 10)"><text x="0" y="0" font-family="Virgil, Segoe UI Emoji" font-size="16px" fill="#000000" text-anchor="start" style="white-space: pre;" direction="ltr" dominant-baseline="text-before-edge">Decoder</text></g><g stroke-linecap="round" transform="translate(570.9975132380149 360.1745311419385) rotate(0 22.5880368049323 17.814219554733427)"><path d="M2.37 2.06 C2.37 2.06, 2.37 2.06, 2.37 2.06 M2.37 2.06 C2.37 2.06, 2.37 2.06, 2.37 2.06 M0.8 9.97 C2.63 7.64, 4.9 4.76, 9.33 0.16 M0.8 9.97 C4.06 6.09, 7.7 2.12, 9.33 0.16 M0.54 16.37 C5.26 10.84, 11.49 4.53, 14.31 0.52 M0.54 16.37 C4.94 11.14, 9.85 5.92, 14.31 0.52 M0.27 22.76 C4.53 17.7, 10.25 12.27, 19.96 0.12 M0.27 22.76 C4.73 18.18, 8.69 12.95, 19.96 0.12 M0.67 28.41 C10.07 16.95, 19.99 5.58, 24.94 0.48 M0.67 28.41 C6.2 21.67, 12.1 15.51, 24.94 0.48 M2.38 32.54 C9.81 23.44, 18.03 15.1, 30.59 0.09 M2.38 32.54 C12.62 20.34, 23.31 8.37, 30.59 0.09 M5.39 35.16 C15.23 23.11, 25.94 11.58, 35.57 0.45 M5.39 35.16 C15.65 23.47, 26.24 11.68, 35.57 0.45 M10.38 35.52 C18.45 25.95, 26.83 15.75, 40.56 0.81 M10.38 35.52 C17.44 27.75, 24.29 19.52, 40.56 0.81 M15.37 35.88 C25.48 23.53, 36.12 11.58, 43.58 3.43 M15.37 35.88 C21.39 29.24, 27.24 22.29, 43.58 3.43 M21.01 35.49 C26.38 29.28, 32.02 23.52, 45.29 7.57 M21.01 35.49 C31.01 24.7, 40.65 13.49, 45.29 7.57 M26 35.85 C32.51 27.68, 39.08 20.89, 45.02 13.96 M26 35.85 C33.52 27.66, 40.84 18.77, 45.02 13.96 M31.64 35.46 C36.07 30.24, 41.92 23.51, 45.42 19.61 M31.64 35.46 C35.18 31.69, 38.5 27.18, 45.42 19.61 M36.63 35.82 C39.18 33.03, 41.49 30.18, 45.16 26 M36.63 35.82 C39.57 32.59, 42.13 29.44, 45.16 26" stroke="#82c91e" stroke-width="0.5" fill="none"></path><path d="M8.91 0 C16.94 0.48, 24.82 0.39, 36.27 0 M8.91 0 C19.64 0.19, 30.27 -0.17, 36.27 0 M36.27 0 C41.99 -0.24, 44.67 2.46, 45.18 8.91 M36.27 0 C42.29 -0.57, 44.54 2.65, 45.18 8.91 M45.18 8.91 C45.21 15.13, 45.63 20.72, 45.18 26.72 M45.18 8.91 C45.48 14.77, 45.13 20.09, 45.18 26.72 M45.18 26.72 C45.63 32.85, 42.74 35.82, 36.27 35.63 M45.18 26.72 C45.06 33.16, 42.25 35.26, 36.27 35.63 M36.27 35.63 C29.47 35.37, 22.35 35.81, 8.91 35.63 M36.27 35.63 C26.74 35.4, 17.33 35.65, 8.91 35.63 M8.91 35.63 C3.18 35.98, 0.19 32.52, 0 26.72 M8.91 35.63 C3.27 35.55, -0.56 33.02, 0 26.72 M0 26.72 C-0.19 19.31, -0.52 12.98, 0 8.91 M0 26.72 C-0.11 22.37, -0.04 18.37, 0 8.91 M0 8.91 C-0.25 3.06, 2.8 0.15, 8.91 0 M0 8.91 C0.48 2.77, 2.85 0.29, 8.91 0" stroke="#1e1e1e" stroke-width="1" fill="none"></path></g><g transform="translate(579.6118914812406 368.17027258498035) rotate(0 13.973658561706486 9.818478111691547)"><text x="13.973658561706543" y="0" font-family="Virgil, Segoe UI Emoji" font-size="15.709564978706437px" fill="#1e1e1e" text-anchor="middle" style="white-space: pre;" direction="ltr" dominant-baseline="text-before-edge">f_n</text></g><g stroke-linecap="round" transform="translate(588.5296168636419 190.41151209098643) rotate(0 3.6543973071624123 3.1646327196045263)"><path d="M3.76 0.15 C4.5 0.08, 5.43 0.28, 6.01 0.7 C6.6 1.12, 7.15 1.97, 7.27 2.67 C7.39 3.36, 7.15 4.29, 6.75 4.86 C6.35 5.42, 5.62 5.87, 4.88 6.06 C4.15 6.25, 3.07 6.17, 2.35 5.97 C1.63 5.78, 0.91 5.45, 0.55 4.87 C0.2 4.29, 0.1 3.15, 0.22 2.47 C0.33 1.79, 0.67 1.19, 1.22 0.77 C1.78 0.35, 3.17 0.06, 3.56 -0.06 C3.96 -0.18, 3.56 -0.02, 3.59 0.04 M3.89 -0.03 C4.62 -0.01, 5.37 0.53, 5.89 1 C6.42 1.47, 6.92 2.13, 7.04 2.78 C7.15 3.44, 6.98 4.4, 6.59 4.93 C6.2 5.46, 5.42 5.81, 4.7 5.98 C3.99 6.16, 3.02 6.18, 2.3 5.95 C1.59 5.72, 0.79 5.16, 0.39 4.58 C0 3.99, -0.2 3.12, -0.06 2.44 C0.08 1.77, 0.6 0.95, 1.24 0.54 C1.88 0.12, 3.33 0, 3.78 -0.08 C4.24 -0.15, 3.98 -0.04, 3.98 0.06" stroke="none" stroke-width="0" fill="#868e96"></path><path d="M4.03 0.02 C4.82 0.05, 5.77 0.47, 6.3 0.95 C6.84 1.43, 7.15 2.25, 7.23 2.9 C7.31 3.55, 7.25 4.3, 6.79 4.87 C6.34 5.43, 5.26 6.09, 4.5 6.3 C3.74 6.51, 2.88 6.42, 2.21 6.14 C1.53 5.85, 0.78 5.22, 0.44 4.61 C0.1 3.99, -0.04 3.12, 0.16 2.43 C0.36 1.74, 1.02 0.86, 1.66 0.45 C2.31 0.03, 3.64 -0.01, 4.02 -0.07 C4.4 -0.14, 3.98 0.01, 3.94 0.07 M4.11 0.08 C4.83 0.09, 5.62 0.38, 6.13 0.83 C6.65 1.28, 7.14 2.1, 7.21 2.8 C7.29 3.49, 7.03 4.42, 6.57 4.99 C6.11 5.56, 5.21 6.03, 4.46 6.21 C3.71 6.39, 2.76 6.4, 2.04 6.09 C1.33 5.78, 0.56 4.98, 0.19 4.35 C-0.17 3.73, -0.34 2.95, -0.12 2.34 C0.09 1.72, 0.83 1.08, 1.5 0.67 C2.17 0.26, 3.48 -0.01, 3.89 -0.11 C4.3 -0.21, 3.97 -0.04, 3.96 0.07" stroke="#1e1e1e" stroke-width="1" fill="none"></path></g><g stroke-linecap="round" transform="translate(589.0494342362736 202.80825510605803) rotate(29.248826336547268 3.398299327830614 3.0496785925219)"><path d="M3.62 -0.05 C4.3 -0.07, 5.25 0.4, 5.77 0.88 C6.29 1.36, 6.65 2.19, 6.72 2.82 C6.8 3.45, 6.62 4.17, 6.22 4.67 C5.82 5.17, 4.99 5.61, 4.31 5.83 C3.62 6.04, 2.73 6.24, 2.09 5.98 C1.46 5.72, 0.85 4.87, 0.5 4.27 C0.15 3.66, -0.13 2.98, 0 2.36 C0.12 1.73, 0.67 0.92, 1.26 0.52 C1.85 0.13, 3.12 0.07, 3.53 -0.02 C3.94 -0.11, 3.68 -0.04, 3.71 0 M3.12 0.2 C3.75 0.16, 4.71 0.35, 5.28 0.74 C5.85 1.13, 6.39 1.95, 6.55 2.54 C6.72 3.14, 6.6 3.79, 6.28 4.32 C5.97 4.85, 5.31 5.48, 4.64 5.73 C3.98 5.99, 2.99 6.05, 2.28 5.85 C1.56 5.66, 0.77 5.13, 0.37 4.56 C-0.03 4, -0.24 3.1, -0.11 2.45 C0.02 1.81, 0.56 1.1, 1.17 0.69 C1.77 0.28, 3.17 0.07, 3.53 0 C3.89 -0.07, 3.39 0.23, 3.32 0.27" stroke="none" stroke-width="0" fill="#868e96"></path><path d="M3.35 0.05 C4.01 -0.01, 4.83 0.3, 5.42 0.68 C6 1.05, 6.7 1.67, 6.84 2.31 C6.98 2.96, 6.62 3.95, 6.27 4.56 C5.92 5.16, 5.39 5.71, 4.75 5.96 C4.11 6.21, 3.15 6.24, 2.45 6.03 C1.75 5.83, 0.95 5.32, 0.57 4.73 C0.19 4.14, 0.06 3.17, 0.16 2.5 C0.27 1.83, 0.66 1.13, 1.18 0.71 C1.69 0.29, 2.93 0.11, 3.25 0 C3.58 -0.12, 3.13 -0.05, 3.16 0.01 M3.23 -0.06 C3.87 -0.14, 4.86 0.18, 5.43 0.61 C5.99 1.03, 6.49 1.83, 6.62 2.48 C6.74 3.13, 6.55 3.92, 6.2 4.5 C5.85 5.07, 5.22 5.71, 4.54 5.92 C3.87 6.13, 2.87 5.97, 2.16 5.75 C1.45 5.53, 0.63 5.11, 0.27 4.6 C-0.08 4.09, -0.12 3.34, 0.02 2.68 C0.16 2.02, 0.55 1.1, 1.11 0.66 C1.66 0.21, 2.99 0.06, 3.34 0 C3.69 -0.06, 3.24 0.26, 3.2 0.3" stroke="#1e1e1e" stroke-width="1" fill="none"></path></g><g stroke-linecap="round" transform="translate(589.6221686358863 214.63602207557824) rotate(0 3.390677913861964 3.202306918647423)"><path d="M3.65 0.04 C4.34 0.07, 5.18 0.54, 5.7 1 C6.22 1.46, 6.69 2.15, 6.77 2.79 C6.84 3.43, 6.56 4.24, 6.16 4.85 C5.77 5.45, 5.06 6.24, 4.39 6.43 C3.72 6.62, 2.85 6.3, 2.16 6 C1.46 5.7, 0.6 5.25, 0.23 4.64 C-0.13 4.03, -0.21 3.03, -0.03 2.35 C0.14 1.68, 0.66 0.98, 1.28 0.58 C1.91 0.17, 3.3 0.04, 3.71 -0.06 C4.12 -0.16, 3.76 -0.11, 3.74 -0.03 M3.12 0.08 C3.81 0.01, 4.78 0.44, 5.36 0.83 C5.95 1.22, 6.46 1.79, 6.62 2.42 C6.79 3.06, 6.69 4, 6.35 4.62 C6 5.23, 5.25 5.86, 4.54 6.11 C3.84 6.37, 2.84 6.38, 2.14 6.14 C1.43 5.91, 0.67 5.28, 0.33 4.69 C-0.02 4.1, -0.11 3.26, 0.06 2.61 C0.24 1.95, 0.85 1.17, 1.4 0.77 C1.95 0.37, 3.06 0.34, 3.36 0.21 C3.65 0.08, 3.17 -0.07, 3.17 -0.02" stroke="none" stroke-width="0" fill="#868e96"></path><path d="M3.34 0.04 C4.04 -0.02, 5.16 0.22, 5.7 0.67 C6.25 1.12, 6.48 2.04, 6.6 2.75 C6.71 3.45, 6.71 4.31, 6.39 4.9 C6.06 5.49, 5.31 6.07, 4.62 6.29 C3.94 6.52, 2.94 6.54, 2.26 6.26 C1.59 5.99, 0.94 5.27, 0.58 4.65 C0.22 4.03, 0.02 3.2, 0.12 2.55 C0.22 1.9, 0.67 1.17, 1.19 0.74 C1.72 0.3, 2.87 0.06, 3.27 -0.05 C3.67 -0.15, 3.57 0.03, 3.58 0.11 M3.39 -0.05 C4.08 -0.05, 4.99 0.39, 5.52 0.85 C6.05 1.31, 6.44 2.05, 6.55 2.72 C6.66 3.4, 6.55 4.35, 6.17 4.9 C5.8 5.46, 5.01 5.84, 4.3 6.04 C3.6 6.25, 2.57 6.34, 1.92 6.13 C1.27 5.92, 0.71 5.42, 0.4 4.81 C0.08 4.2, -0.11 3.14, 0.04 2.45 C0.19 1.77, 0.76 1.07, 1.32 0.7 C1.87 0.34, 3.05 0.35, 3.37 0.24 C3.7 0.12, 3.24 -0.02, 3.26 0" stroke="#1e1e1e" stroke-width="1" fill="none"></path></g><g stroke-linecap="round" transform="translate(589.3681716165315 304.3650265251008) rotate(0 3.6543973071624123 3.1646327196045263)"><path d="M3.72 0.09 C4.46 0.07, 5.51 0.26, 6.11 0.71 C6.71 1.17, 7.23 2.13, 7.31 2.8 C7.39 3.48, 7.04 4.19, 6.61 4.75 C6.17 5.31, 5.4 5.96, 4.69 6.18 C3.98 6.4, 3.08 6.34, 2.36 6.07 C1.63 5.81, 0.72 5.17, 0.34 4.58 C-0.04 3.98, -0.09 3.15, 0.1 2.51 C0.28 1.86, 0.82 1.12, 1.47 0.7 C2.11 0.28, 3.6 0.1, 3.98 -0.02 C4.36 -0.13, 3.79 -0.06, 3.76 0.01 M3.61 0.01 C4.35 -0.09, 5.32 0.25, 5.95 0.64 C6.57 1.04, 7.22 1.73, 7.38 2.39 C7.54 3.05, 7.33 3.95, 6.91 4.59 C6.48 5.24, 5.53 5.99, 4.83 6.26 C4.12 6.52, 3.36 6.46, 2.65 6.19 C1.94 5.93, 0.99 5.26, 0.56 4.65 C0.14 4.04, 0.01 3.14, 0.12 2.52 C0.24 1.9, 0.69 1.36, 1.24 0.95 C1.8 0.54, 3.07 0.19, 3.46 0.07 C3.84 -0.05, 3.58 0.16, 3.57 0.23" stroke="none" stroke-width="0" fill="#868e96"></path><path d="M3.99 0.01 C4.71 0.03, 5.65 0.55, 6.18 1.01 C6.71 1.47, 7.08 2.09, 7.19 2.76 C7.3 3.43, 7.26 4.41, 6.83 5.01 C6.39 5.61, 5.37 6.17, 4.61 6.35 C3.85 6.54, 2.97 6.41, 2.28 6.1 C1.58 5.79, 0.82 5.14, 0.43 4.5 C0.05 3.87, -0.22 2.94, -0.02 2.29 C0.18 1.64, 1 0.97, 1.66 0.58 C2.32 0.19, 3.55 0.03, 3.94 -0.04 C4.33 -0.11, 4 0.14, 4.01 0.18 M3.61 -0.15 C4.33 -0.11, 5.38 0.55, 6.01 1.07 C6.63 1.59, 7.29 2.33, 7.37 2.98 C7.46 3.64, 6.97 4.48, 6.5 4.98 C6.04 5.49, 5.3 5.83, 4.6 6.02 C3.91 6.22, 3.01 6.43, 2.32 6.17 C1.64 5.9, 0.88 5.02, 0.48 4.43 C0.09 3.85, -0.21 3.33, -0.03 2.67 C0.15 2, 0.89 0.9, 1.54 0.43 C2.19 -0.04, 3.53 -0.1, 3.87 -0.16 C4.21 -0.21, 3.59 0.02, 3.6 0.08" stroke="#1e1e1e" stroke-width="1" fill="none"></path></g><g stroke-linecap="round" transform="translate(589.8879889891637 316.7617695401725) rotate(29.248826336547268 3.398299327830614 3.0496785925219)"><path d="M3.22 -0.13 C3.94 -0.21, 4.94 0.26, 5.5 0.66 C6.06 1.06, 6.46 1.63, 6.6 2.26 C6.75 2.89, 6.67 3.85, 6.37 4.45 C6.08 5.06, 5.5 5.62, 4.82 5.87 C4.14 6.11, 3.02 6.12, 2.31 5.93 C1.59 5.74, 0.91 5.27, 0.53 4.73 C0.15 4.2, -0.07 3.36, 0.04 2.7 C0.16 2.04, 0.7 1.23, 1.22 0.77 C1.73 0.31, 2.81 0.05, 3.15 -0.06 C3.49 -0.17, 3.27 0.03, 3.28 0.1 M3.61 -0.04 C4.32 -0.07, 5.34 0.25, 5.88 0.69 C6.41 1.13, 6.78 1.92, 6.82 2.61 C6.85 3.31, 6.45 4.31, 6.07 4.87 C5.69 5.44, 5.19 5.86, 4.53 6 C3.86 6.13, 2.76 5.98, 2.08 5.68 C1.4 5.39, 0.77 4.77, 0.44 4.24 C0.11 3.71, -0.04 3.09, 0.1 2.5 C0.24 1.91, 0.68 1.06, 1.27 0.67 C1.85 0.28, 3.25 0.24, 3.61 0.17 C3.96 0.1, 3.4 0.24, 3.4 0.23" stroke="none" stroke-width="0" fill="#868e96"></path><path d="M3.47 0.11 C4.13 0.08, 4.98 0.26, 5.56 0.68 C6.13 1.11, 6.79 1.98, 6.91 2.67 C7.03 3.35, 6.64 4.24, 6.26 4.79 C5.87 5.35, 5.27 5.81, 4.6 5.99 C3.92 6.17, 2.94 6.12, 2.22 5.85 C1.5 5.59, 0.61 4.98, 0.28 4.41 C-0.06 3.83, 0.04 3.05, 0.21 2.42 C0.38 1.79, 0.72 1, 1.28 0.61 C1.84 0.22, 3.18 0.22, 3.57 0.11 C3.96 -0.01, 3.6 -0.09, 3.61 -0.06 M3.24 0.23 C3.98 0.24, 5.11 0.52, 5.65 0.91 C6.2 1.31, 6.42 2.02, 6.51 2.6 C6.61 3.18, 6.53 3.82, 6.22 4.39 C5.91 4.95, 5.32 5.76, 4.67 5.99 C4.02 6.22, 3.06 5.94, 2.34 5.74 C1.62 5.54, 0.72 5.37, 0.35 4.8 C-0.01 4.23, 0 3.04, 0.15 2.33 C0.3 1.63, 0.73 0.96, 1.23 0.57 C1.73 0.19, 2.77 0.12, 3.15 0.01 C3.53 -0.1, 3.46 -0.16, 3.52 -0.08" stroke="#1e1e1e" stroke-width="1" fill="none"></path></g><g stroke-linecap="round" transform="translate(590.4607233887759 328.5895365096926) rotate(0 3.390677913861964 3.202306918647423)"><path d="M3.56 0.03 C4.24 0.01, 5.04 0.24, 5.56 0.7 C6.09 1.16, 6.58 2.07, 6.72 2.77 C6.85 3.47, 6.77 4.34, 6.38 4.92 C5.99 5.49, 5.07 6.01, 4.35 6.23 C3.64 6.45, 2.76 6.46, 2.1 6.21 C1.44 5.97, 0.71 5.36, 0.4 4.74 C0.08 4.12, 0.05 3.18, 0.19 2.49 C0.32 1.8, 0.64 1.01, 1.19 0.6 C1.75 0.19, 3.14 0.12, 3.53 0.04 C3.92 -0.05, 3.5 0.03, 3.52 0.09 M3.54 -0.14 C4.24 -0.19, 5.11 0.18, 5.62 0.67 C6.12 1.16, 6.42 2.1, 6.56 2.8 C6.71 3.49, 6.81 4.3, 6.48 4.84 C6.15 5.38, 5.27 5.85, 4.57 6.05 C3.88 6.25, 2.99 6.22, 2.31 6.03 C1.62 5.85, 0.85 5.51, 0.46 4.95 C0.07 4.4, -0.18 3.39, -0.05 2.71 C0.08 2.04, 0.68 1.33, 1.22 0.91 C1.77 0.49, 2.83 0.34, 3.2 0.17 C3.57 -0.01, 3.42 -0.14, 3.43 -0.15" stroke="none" stroke-width="0" fill="#868e96"></path><path d="M3.3 -0.09 C4.02 -0.14, 5.16 0.34, 5.73 0.82 C6.29 1.3, 6.58 2.12, 6.7 2.8 C6.82 3.47, 6.8 4.3, 6.45 4.86 C6.1 5.42, 5.34 5.97, 4.61 6.18 C3.89 6.39, 2.76 6.35, 2.09 6.11 C1.42 5.88, 0.93 5.37, 0.59 4.78 C0.25 4.19, -0.07 3.24, 0.05 2.59 C0.16 1.93, 0.69 1.3, 1.27 0.85 C1.84 0.4, 3.11 0.01, 3.49 -0.12 C3.86 -0.25, 3.55 0.02, 3.54 0.07 M3.32 0.22 C3.99 0.13, 4.67 0.41, 5.21 0.76 C5.75 1.11, 6.35 1.66, 6.56 2.33 C6.77 2.99, 6.78 4.14, 6.49 4.75 C6.19 5.36, 5.49 5.68, 4.78 5.97 C4.08 6.26, 2.96 6.67, 2.27 6.46 C1.58 6.25, 1.01 5.36, 0.65 4.72 C0.28 4.09, 0.03 3.29, 0.07 2.64 C0.11 2, 0.32 1.33, 0.87 0.86 C1.42 0.4, 2.96 -0.04, 3.38 -0.14 C3.79 -0.23, 3.37 0.21, 3.37 0.28" stroke="#1e1e1e" stroke-width="1" fill="none"></path></g><g stroke-linecap="round" transform="translate(443.7974971082119 189.09413042122787) rotate(0 2.318381087339617 2.0076702199642114)"><path d="M2.17 0.09 C2.65 0.07, 3.39 0.1, 3.78 0.34 C4.17 0.58, 4.42 1.1, 4.5 1.52 C4.59 1.94, 4.55 2.47, 4.29 2.87 C4.03 3.28, 3.43 3.79, 2.97 3.94 C2.5 4.08, 1.92 3.88, 1.5 3.75 C1.08 3.61, 0.69 3.5, 0.44 3.13 C0.18 2.76, -0.09 1.99, -0.03 1.53 C0.04 1.08, 0.41 0.66, 0.82 0.42 C1.24 0.18, 2.21 0.19, 2.45 0.11 C2.69 0.03, 2.27 -0.08, 2.26 -0.04 M2.46 0.01 C2.96 0.06, 3.55 0.47, 3.92 0.79 C4.28 1.12, 4.59 1.53, 4.66 1.96 C4.73 2.39, 4.67 2.99, 4.35 3.35 C4.03 3.71, 3.23 4.07, 2.73 4.13 C2.22 4.18, 1.74 3.86, 1.32 3.69 C0.91 3.52, 0.45 3.45, 0.21 3.1 C-0.03 2.74, -0.21 2.04, -0.11 1.56 C-0.01 1.08, 0.39 0.45, 0.8 0.22 C1.22 -0.01, 2.11 0.17, 2.38 0.17 C2.65 0.17, 2.4 0.21, 2.42 0.23" stroke="none" stroke-width="0" fill="#868e96"></path><path d="M2.31 0.05 C2.81 0, 3.55 0.13, 3.94 0.39 C4.33 0.64, 4.59 1.17, 4.66 1.6 C4.73 2.03, 4.64 2.59, 4.37 2.97 C4.1 3.35, 3.53 3.72, 3.04 3.86 C2.54 4, 1.86 4, 1.39 3.83 C0.93 3.66, 0.49 3.21, 0.24 2.84 C0 2.48, -0.18 2.06, -0.06 1.66 C0.06 1.27, 0.54 0.71, 0.95 0.46 C1.36 0.2, 2.14 0.19, 2.39 0.13 C2.65 0.08, 2.45 0.13, 2.47 0.11 M2.25 -0.22 C2.66 -0.22, 3.25 0.05, 3.67 0.36 C4.08 0.66, 4.63 1.15, 4.73 1.61 C4.83 2.06, 4.53 2.69, 4.25 3.1 C3.98 3.51, 3.58 3.96, 3.08 4.07 C2.59 4.18, 1.74 3.95, 1.28 3.78 C0.83 3.61, 0.55 3.4, 0.34 3.04 C0.14 2.67, -0.01 2, 0.06 1.56 C0.14 1.13, 0.4 0.68, 0.8 0.44 C1.2 0.19, 2.18 0.17, 2.48 0.1 C2.78 0.02, 2.58 -0.06, 2.6 -0.02" stroke="#1e1e1e" stroke-width="1" fill="none"></path></g><g stroke-linecap="round" transform="translate(444.12727372095685 196.95873082863886) rotate(29.248826336547268 2.1559103262581516 1.9347423328902664)"><path d="M1.98 -0.13 C2.43 -0.21, 2.96 -0.01, 3.33 0.23 C3.71 0.48, 4.11 0.9, 4.22 1.34 C4.32 1.77, 4.15 2.47, 3.95 2.84 C3.75 3.21, 3.38 3.38, 3 3.56 C2.62 3.74, 2.13 4.03, 1.68 3.92 C1.23 3.8, 0.58 3.26, 0.3 2.89 C0.02 2.51, -0.08 2.05, 0.01 1.67 C0.09 1.3, 0.46 0.94, 0.78 0.64 C1.11 0.35, 1.72 0, 1.94 -0.08 C2.16 -0.15, 2.06 0.14, 2.1 0.17 M2.08 0.22 C2.53 0.21, 3.15 0.32, 3.53 0.58 C3.92 0.84, 4.33 1.35, 4.38 1.76 C4.43 2.18, 4.07 2.74, 3.83 3.05 C3.58 3.35, 3.3 3.43, 2.9 3.59 C2.5 3.74, 1.91 4.08, 1.45 3.98 C0.99 3.88, 0.4 3.4, 0.13 2.99 C-0.13 2.57, -0.22 1.88, -0.13 1.49 C-0.05 1.1, 0.26 0.87, 0.62 0.65 C0.98 0.43, 1.78 0.27, 2.04 0.18 C2.29 0.09, 2.11 0.11, 2.15 0.11" stroke="none" stroke-width="0" fill="#868e96"></path><path d="M2.34 -0.11 C2.8 -0.14, 3.33 0.12, 3.66 0.41 C4 0.69, 4.31 1.19, 4.36 1.6 C4.4 2.02, 4.22 2.57, 3.95 2.92 C3.67 3.28, 3.16 3.62, 2.72 3.73 C2.28 3.84, 1.72 3.73, 1.29 3.59 C0.86 3.45, 0.34 3.22, 0.14 2.88 C-0.05 2.53, 0.02 1.92, 0.14 1.53 C0.26 1.14, 0.49 0.78, 0.86 0.54 C1.23 0.29, 2.08 0.18, 2.34 0.08 C2.6 -0.03, 2.41 -0.15, 2.41 -0.11 M1.81 -0.16 C2.29 -0.19, 3.14 -0.03, 3.54 0.25 C3.95 0.52, 4.12 1.05, 4.22 1.5 C4.32 1.95, 4.37 2.59, 4.14 2.94 C3.92 3.29, 3.28 3.46, 2.87 3.62 C2.45 3.77, 2.04 3.99, 1.63 3.88 C1.21 3.78, 0.66 3.35, 0.37 2.99 C0.09 2.63, -0.14 2.13, -0.08 1.74 C-0.02 1.35, 0.36 0.93, 0.74 0.63 C1.12 0.33, 1.96 0.02, 2.21 -0.05 C2.46 -0.13, 2.24 0.18, 2.22 0.2" stroke="#1e1e1e" stroke-width="1" fill="none"></path></g><g stroke-linecap="round" transform="translate(444.4906213508186 204.46236793833475) rotate(0 2.1510752356759326 2.0315710559161175)"><path d="M2.15 -0.14 C2.59 -0.15, 3.24 0.07, 3.57 0.4 C3.91 0.72, 4.08 1.38, 4.14 1.82 C4.21 2.25, 4.14 2.6, 3.94 2.98 C3.73 3.36, 3.37 3.96, 2.92 4.1 C2.47 4.23, 1.71 3.98, 1.26 3.78 C0.81 3.59, 0.41 3.27, 0.23 2.92 C0.05 2.57, 0.08 2.13, 0.17 1.7 C0.26 1.27, 0.4 0.6, 0.76 0.34 C1.12 0.08, 2.05 0.2, 2.32 0.13 C2.6 0.07, 2.44 -0.07, 2.42 -0.06 M2.19 0.16 C2.65 0.13, 3.34 0.4, 3.65 0.69 C3.96 0.97, 3.99 1.5, 4.04 1.87 C4.1 2.24, 4.17 2.52, 3.97 2.9 C3.77 3.28, 3.32 3.98, 2.86 4.16 C2.41 4.34, 1.69 4.2, 1.23 3.98 C0.77 3.77, 0.35 3.24, 0.13 2.89 C-0.09 2.53, -0.17 2.21, -0.07 1.84 C0.02 1.47, 0.33 0.95, 0.71 0.66 C1.09 0.36, 1.93 0.17, 2.2 0.08 C2.47 -0.02, 2.32 0.06, 2.32 0.07" stroke="none" stroke-width="0" fill="#868e96"></path><path d="M2.26 -0.1 C2.69 -0.11, 3.3 0.14, 3.64 0.43 C3.97 0.73, 4.2 1.24, 4.25 1.68 C4.29 2.11, 4.14 2.68, 3.9 3.04 C3.66 3.4, 3.23 3.67, 2.8 3.82 C2.36 3.98, 1.67 4.1, 1.27 3.97 C0.86 3.83, 0.55 3.39, 0.35 3.02 C0.15 2.65, -0.03 2.18, 0.06 1.77 C0.15 1.35, 0.51 0.84, 0.89 0.52 C1.27 0.2, 2.12 -0.09, 2.36 -0.15 C2.59 -0.21, 2.35 0.12, 2.3 0.16 M2.11 -0.12 C2.57 -0.15, 3.02 0.11, 3.38 0.41 C3.74 0.71, 4.2 1.28, 4.29 1.68 C4.38 2.09, 4.13 2.45, 3.93 2.83 C3.73 3.21, 3.5 3.79, 3.11 3.98 C2.71 4.17, 2.05 4.1, 1.58 3.97 C1.1 3.84, 0.52 3.53, 0.28 3.19 C0.03 2.85, -0.01 2.37, 0.08 1.92 C0.18 1.47, 0.49 0.81, 0.85 0.52 C1.2 0.22, 2 0.27, 2.19 0.16 C2.39 0.05, 2.04 -0.12, 2.01 -0.13" stroke="#1e1e1e" stroke-width="1" fill="none"></path></g><g stroke-linecap="round" transform="translate(447.2128860558547 304.69437194254033) rotate(0 2.318381087339617 2.0076702199642114)"><path d="M2.28 -0.01 C2.78 -0.06, 3.46 0.03, 3.82 0.31 C4.18 0.58, 4.35 1.2, 4.45 1.64 C4.55 2.09, 4.62 2.59, 4.42 2.97 C4.22 3.35, 3.75 3.78, 3.26 3.93 C2.77 4.08, 1.96 4, 1.48 3.87 C1 3.73, 0.65 3.47, 0.39 3.13 C0.12 2.79, -0.16 2.22, -0.11 1.81 C-0.05 1.39, 0.33 0.92, 0.71 0.61 C1.09 0.31, 1.89 0.06, 2.15 -0.01 C2.42 -0.09, 2.28 0.16, 2.32 0.17 M2.07 0.04 C2.54 0.01, 3.45 0.36, 3.88 0.6 C4.31 0.85, 4.58 1.09, 4.67 1.5 C4.76 1.91, 4.68 2.65, 4.42 3.06 C4.15 3.48, 3.54 3.86, 3.08 3.97 C2.62 4.09, 2.08 3.9, 1.67 3.74 C1.26 3.58, 0.87 3.36, 0.61 3.04 C0.34 2.72, 0.08 2.22, 0.07 1.83 C0.07 1.43, 0.22 0.99, 0.57 0.67 C0.91 0.35, 1.89 0, 2.15 -0.1 C2.41 -0.2, 2.13 0.01, 2.13 0.07" stroke="none" stroke-width="0" fill="#868e96"></path><path d="M2.14 0.12 C2.59 0.07, 3.33 0.25, 3.74 0.5 C4.15 0.74, 4.49 1.18, 4.6 1.58 C4.71 1.98, 4.63 2.53, 4.39 2.9 C4.15 3.27, 3.59 3.67, 3.16 3.82 C2.74 3.98, 2.32 3.94, 1.84 3.82 C1.36 3.71, 0.61 3.46, 0.28 3.13 C-0.04 2.8, -0.18 2.29, -0.13 1.84 C-0.07 1.4, 0.23 0.79, 0.61 0.48 C1 0.17, 1.95 0.06, 2.2 -0.01 C2.44 -0.07, 2.08 0.03, 2.09 0.08 M2.17 0.12 C2.65 0.07, 3.59 -0.02, 4 0.27 C4.4 0.55, 4.53 1.35, 4.6 1.83 C4.67 2.32, 4.66 2.81, 4.41 3.19 C4.15 3.56, 3.57 4.02, 3.07 4.11 C2.57 4.2, 1.88 3.9, 1.41 3.75 C0.93 3.59, 0.43 3.52, 0.22 3.19 C0.01 2.86, 0.02 2.2, 0.14 1.76 C0.25 1.32, 0.52 0.88, 0.89 0.56 C1.25 0.24, 2.11 -0.11, 2.35 -0.17 C2.59 -0.24, 2.35 0.15, 2.33 0.17" stroke="#1e1e1e" stroke-width="1" fill="none"></path></g><g stroke-linecap="round" transform="translate(447.5426626685995 312.55897234995155) rotate(29.248826336547268 2.1559103262581516 1.9347423328902664)"><path d="M2.17 -0.1 C2.58 -0.13, 2.99 0.2, 3.35 0.48 C3.71 0.76, 4.18 1.16, 4.31 1.57 C4.44 1.97, 4.36 2.55, 4.12 2.91 C3.87 3.26, 3.26 3.52, 2.82 3.67 C2.39 3.83, 1.95 3.93, 1.52 3.82 C1.08 3.71, 0.46 3.36, 0.2 3.02 C-0.06 2.68, -0.09 2.18, -0.02 1.75 C0.05 1.33, 0.27 0.75, 0.64 0.48 C1 0.21, 1.9 0.23, 2.16 0.13 C2.43 0.04, 2.25 -0.12, 2.21 -0.09 M2.4 0.23 C2.87 0.2, 3.36 0.2, 3.67 0.46 C3.99 0.73, 4.27 1.38, 4.29 1.82 C4.32 2.25, 4.06 2.78, 3.81 3.07 C3.57 3.36, 3.21 3.47, 2.83 3.56 C2.46 3.66, 2.01 3.75, 1.59 3.64 C1.17 3.53, 0.61 3.22, 0.33 2.89 C0.05 2.56, -0.17 2.09, -0.09 1.67 C-0.02 1.24, 0.42 0.6, 0.8 0.33 C1.18 0.06, 1.94 0.07, 2.17 0.02 C2.41 -0.02, 2.19 0.05, 2.2 0.06" stroke="none" stroke-width="0" fill="#868e96"></path><path d="M2.3 0.12 C2.75 0.1, 3.31 0.3, 3.64 0.57 C3.97 0.83, 4.24 1.29, 4.28 1.69 C4.32 2.09, 4.09 2.62, 3.87 2.95 C3.65 3.28, 3.41 3.53, 2.97 3.66 C2.53 3.79, 1.7 3.85, 1.23 3.72 C0.75 3.59, 0.32 3.25, 0.11 2.87 C-0.1 2.5, -0.16 1.85, -0.04 1.44 C0.09 1.03, 0.51 0.63, 0.87 0.4 C1.24 0.16, 1.93 0.08, 2.17 0.03 C2.41 -0.01, 2.29 0.1, 2.31 0.13 M2.3 -0.22 C2.77 -0.25, 3.17 0.26, 3.52 0.59 C3.87 0.91, 4.29 1.31, 4.38 1.73 C4.46 2.15, 4.28 2.78, 4.02 3.09 C3.77 3.41, 3.27 3.46, 2.83 3.61 C2.38 3.76, 1.77 4.06, 1.36 3.97 C0.96 3.87, 0.61 3.42, 0.39 3.05 C0.17 2.67, 0 2.18, 0.06 1.72 C0.12 1.26, 0.41 0.55, 0.75 0.29 C1.09 0.02, 1.9 0.21, 2.12 0.13 C2.33 0.06, 2.03 -0.2, 2.04 -0.18" stroke="#1e1e1e" stroke-width="1" fill="none"></path></g><g stroke-linecap="round" transform="translate(447.9060102984614 320.0626094596473) rotate(0 2.1510752356759326 2.0315710559161175)"><path d="M2.01 0.07 C2.44 0.06, 3.18 0.23, 3.57 0.5 C3.96 0.78, 4.27 1.32, 4.32 1.73 C4.37 2.15, 4.11 2.61, 3.88 2.98 C3.64 3.36, 3.35 3.81, 2.92 3.98 C2.49 4.15, 1.74 4.14, 1.3 4 C0.85 3.86, 0.48 3.53, 0.25 3.14 C0.03 2.76, -0.14 2.1, -0.05 1.68 C0.05 1.25, 0.45 0.91, 0.83 0.61 C1.22 0.31, 2.07 -0.05, 2.26 -0.13 C2.46 -0.2, 2.02 0.11, 2.01 0.16 M2.28 -0.01 C2.69 -0.04, 3.26 0.37, 3.56 0.68 C3.86 0.98, 4.01 1.47, 4.08 1.84 C4.15 2.21, 4.15 2.53, 3.98 2.87 C3.81 3.2, 3.49 3.67, 3.07 3.85 C2.65 4.03, 1.94 4.07, 1.45 3.95 C0.96 3.83, 0.38 3.53, 0.14 3.13 C-0.09 2.73, -0.06 1.99, 0.04 1.55 C0.15 1.11, 0.41 0.74, 0.77 0.48 C1.13 0.23, 1.94 0.11, 2.18 0.02 C2.43 -0.07, 2.22 -0.09, 2.23 -0.06" stroke="none" stroke-width="0" fill="#868e96"></path><path d="M2.31 0.07 C2.73 0.05, 3.3 0.29, 3.61 0.57 C3.92 0.86, 4.09 1.37, 4.18 1.78 C4.26 2.19, 4.36 2.66, 4.1 3.03 C3.85 3.39, 3.14 3.82, 2.65 3.97 C2.16 4.12, 1.58 4.12, 1.17 3.93 C0.75 3.75, 0.32 3.25, 0.15 2.86 C-0.03 2.46, -0.01 1.96, 0.1 1.56 C0.21 1.15, 0.41 0.68, 0.79 0.44 C1.16 0.19, 2.09 0.15, 2.34 0.1 C2.6 0.04, 2.34 0.09, 2.33 0.09 M2.23 0.14 C2.66 0.2, 3.36 0.37, 3.7 0.67 C4.04 0.98, 4.25 1.58, 4.28 1.96 C4.31 2.35, 4.14 2.61, 3.89 2.98 C3.63 3.35, 3.14 4, 2.73 4.18 C2.32 4.35, 1.84 4.23, 1.43 4.04 C1.02 3.86, 0.51 3.52, 0.27 3.09 C0.04 2.65, -0.05 1.85, 0.04 1.42 C0.13 1, 0.46 0.83, 0.81 0.56 C1.16 0.29, 1.89 -0.14, 2.13 -0.21 C2.38 -0.28, 2.27 0.09, 2.27 0.14" stroke="#1e1e1e" stroke-width="1" fill="none"></path></g><g stroke-linecap="round"><g transform="translate(350.9068981809427 326.3861342616476) rotate(0 39.85079551019612 37.94465762971811)"><path d="M0 0 C3.62 11.97, 8.45 60.63, 21.74 71.8 C35.02 82.97, 70.04 67.82, 79.7 67.02 M0 0 C3.62 11.97, 8.45 60.63, 21.74 71.8 C35.02 82.97, 70.04 67.82, 79.7 67.02" stroke="#1e1e1e" stroke-width="1" fill="none"></path></g><g transform="translate(350.9068981809427 326.3861342616476) rotate(0 39.85079551019612 37.94465762971811)"><path d="M55.52 83.18 C64.91 76.9, 74.3 70.63, 79.7 67.02 M55.52 83.18 C64.12 77.43, 72.72 71.69, 79.7 67.02" stroke="#1e1e1e" stroke-width="1" fill="none"></path></g><g transform="translate(350.9068981809427 326.3861342616476) rotate(0 39.85079551019612 37.94465762971811)"><path d="M50.79 63.86 C62.02 65.09, 73.25 66.31, 79.7 67.02 M50.79 63.86 C61.07 64.98, 71.35 66.11, 79.7 67.02" stroke="#1e1e1e" stroke-width="1" fill="none"></path></g></g><mask></mask><g stroke-linecap="round"><g transform="translate(379.55994949819126 266.3241062543051) rotate(0 22.395488385895305 9.116378894396519)"><path d="M0 0 C2.09 2.96, 5.05 15.64, 12.52 17.78 C19.98 19.93, 39.41 13.7, 44.79 12.89 M0 0 C2.09 2.96, 5.05 15.64, 12.52 17.78 C19.98 19.93, 39.41 13.7, 44.79 12.89" stroke="#1e1e1e" stroke-width="1" fill="none"></path></g><g transform="translate(379.55994949819126 266.3241062543051) rotate(0 22.395488385895305 9.116378894396519)"><path d="M31.09 21.77 C36.55 18.23, 42.01 14.69, 44.79 12.89 M31.09 21.77 C35.57 18.87, 40.04 15.97, 44.79 12.89" stroke="#1e1e1e" stroke-width="1" fill="none"></path></g><g transform="translate(379.55994949819126 266.3241062543051) rotate(0 22.395488385895305 9.116378894396519)"><path d="M28.59 10.88 C35.05 11.68, 41.51 12.48, 44.79 12.89 M28.59 10.88 C33.88 11.54, 39.17 12.19, 44.79 12.89" stroke="#1e1e1e" stroke-width="1" fill="none"></path></g></g><mask></mask><g stroke-linecap="round"><g transform="translate(356.8351156948563 200.79891212444988) rotate(0 32.275850909084454 -15.075720819799585)"><path d="M0 0 C3.18 -3.51, 8.34 -16.05, 19.1 -21.08 C29.86 -26.1, 56.98 -28.64, 64.55 -30.15 M0 0 C3.18 -3.51, 8.34 -16.05, 19.1 -21.08 C29.86 -26.1, 56.98 -28.64, 64.55 -30.15" stroke="#1e1e1e" stroke-width="1" fill="none"></path></g><g transform="translate(356.8351156948563 200.79891212444988) rotate(0 32.275850909084454 -15.075720819799585)"><path d="M44.2 -19.07 C48.82 -21.58, 53.43 -24.1, 64.55 -30.15 M44.2 -19.07 C49.01 -21.69, 53.81 -24.3, 64.55 -30.15" stroke="#1e1e1e" stroke-width="1" fill="none"></path></g><g transform="translate(356.8351156948563 200.79891212444988) rotate(0 32.275850909084454 -15.075720819799585)"><path d="M41.84 -34.74 C46.99 -33.7, 52.14 -32.66, 64.55 -30.15 M41.84 -34.74 C47.2 -33.66, 52.57 -32.57, 64.55 -30.15" stroke="#1e1e1e" stroke-width="1" fill="none"></path></g></g><mask></mask><g stroke-linecap="round" transform="translate(724.4331412606357 23.688128621627698) rotate(0 18.394803673475735 18.143564972173067)"><path d="M2.41 2.1 C2.41 2.1, 2.41 2.1, 2.41 2.1 M2.41 2.1 C2.41 2.1, 2.41 2.1, 2.41 2.1 M0.84 10.01 C3.29 7.1, 5.75 3.8, 9.37 0.2 M0.84 10.01 C3.33 7.04, 6.11 3.97, 9.37 0.2 M0.58 16.4 C4.52 11.37, 9.94 6.3, 14.36 0.56 M0.58 16.4 C5.36 10.98, 9.86 6.1, 14.36 0.56 M0.32 22.8 C5.39 16.5, 9.85 10.75, 20 0.16 M0.32 22.8 C6.88 14.96, 13.68 7.25, 20 0.16 M0.71 28.44 C9.57 18.55, 18.25 8.26, 24.99 0.52 M0.71 28.44 C9.66 18.17, 19.09 7.15, 24.99 0.52 M1.76 33.33 C11.63 21.93, 22.47 10.26, 29.97 0.88 M1.76 33.33 C8.17 26.06, 14.56 18.4, 29.97 0.88 M4.78 35.96 C12.93 26.07, 21.1 16.36, 34.3 2 M4.78 35.96 C14.28 24.94, 24.39 13.69, 34.3 2 M9.77 36.32 C20.31 24.47, 30.5 12.44, 36.67 5.37 M9.77 36.32 C15.55 29.59, 20.98 23.29, 36.67 5.37 M14.76 36.68 C20.99 29.47, 26.12 23.4, 37.06 11.02 M14.76 36.68 C23.05 26.84, 31.45 17.25, 37.06 11.02 M20.4 36.28 C24.79 31.88, 29.14 27.23, 37.46 16.66 M20.4 36.28 C26.06 30.02, 31.74 23.21, 37.46 16.66 M25.39 36.64 C29.63 31.19, 34.26 26.44, 37.2 23.06 M25.39 36.64 C29.31 32.41, 32.98 28.23, 37.2 23.06 M31.03 36.25 C32.51 34.07, 34.41 32.58, 36.93 29.46 M31.03 36.25 C32.84 34.32, 34.3 32.3, 36.93 29.46" stroke="#ffec99" stroke-width="0.5" fill="none"></path><path d="M9.07 0 C14.28 -0.02, 20.17 -0.21, 27.72 0 M9.07 0 C13.14 0.08, 17.06 -0.14, 27.72 0 M27.72 0 C34.3 -0.13, 37.17 2.79, 36.79 9.07 M27.72 0 C33.65 0.33, 36.64 2.48, 36.79 9.07 M36.79 9.07 C36.94 14.6, 36.87 20.91, 36.79 27.22 M36.79 9.07 C36.68 13.03, 36.67 16.42, 36.79 27.22 M36.79 27.22 C37.29 33.76, 33.73 36, 27.72 36.29 M36.79 27.22 C37.45 33.32, 34.14 35.63, 27.72 36.29 M27.72 36.29 C22.47 36.78, 17.59 36.56, 9.07 36.29 M27.72 36.29 C22.78 36.3, 18.1 36.57, 9.07 36.29 M9.07 36.29 C3.41 36.54, 0.27 33.61, 0 27.22 M9.07 36.29 C2.35 36.34, -0.66 32.59, 0 27.22 M0 27.22 C-0.43 21.09, -0.51 13.55, 0 9.07 M0 27.22 C0.25 22.6, 0 17.76, 0 9.07 M0 9.07 C-0.01 3.18, 2.71 -0.08, 9.07 0 M0 9.07 C-0.54 3.13, 2.74 -0.21, 9.07 0" stroke="#1e1e1e" stroke-width="1" fill="none"></path></g><g transform="translate(738.3319451210316 31.831693593800765) rotate(0 4.495999813079834 10)"><text x="4.495999813079834" y="0" font-family="Virgil, Segoe UI Emoji" font-size="16px" fill="#1e1e1e" text-anchor="middle" style="white-space: pre;" direction="ltr" dominant-baseline="text-before-edge">x</text></g><g stroke-linecap="round" transform="translate(727.3972500175923 65.57920493524841) rotate(0 16.748076586277648 17.75001125594696)"><path d="M2.23 1.94 C2.23 1.94, 2.23 1.94, 2.23 1.94 M2.23 1.94 C2.23 1.94, 2.23 1.94, 2.23 1.94 M0.66 9.84 C3.51 6.22, 6.69 2.85, 8.53 0.79 M0.66 9.84 C3.16 7.07, 5.82 3.98, 8.53 0.79 M0.39 16.24 C4.74 10.83, 10.12 5.58, 14.17 0.39 M0.39 16.24 C4.86 10.89, 9.35 5.82, 14.17 0.39 M0.79 21.89 C5.84 15.05, 12.3 9.54, 19.16 0.75 M0.79 21.89 C4.98 17.23, 8.97 12.69, 19.16 0.75 M0.53 28.28 C8.54 19, 17.1 8.65, 24.8 0.36 M0.53 28.28 C9.71 17.6, 19.09 7.23, 24.8 0.36 M1.58 33.17 C7.45 26.72, 13.68 19.25, 29.13 1.47 M1.58 33.17 C6.95 26.81, 12.48 20.11, 29.13 1.47 M5.25 35.04 C10.74 27.75, 17.15 21.73, 32.81 3.34 M5.25 35.04 C14.05 24.53, 23.32 14.27, 32.81 3.34 M10.24 35.4 C17.15 27.46, 24.29 20.14, 33.86 8.23 M10.24 35.4 C18.45 25.76, 26.81 16.39, 33.86 8.23 M15.23 35.76 C20.2 29.23, 25.96 23.73, 33.6 14.63 M15.23 35.76 C20 30.51, 24.46 25.25, 33.6 14.63 M20.87 35.37 C24.17 31.37, 28.24 26.81, 33.33 21.03 M20.87 35.37 C24.63 31.44, 27.65 27.45, 33.33 21.03 M25.86 35.73 C27.84 33.63, 29.8 31.42, 33.73 26.67 M25.86 35.73 C27.43 33.89, 28.91 32.17, 33.73 26.67" stroke="#228be6" stroke-width="0.5" fill="none"></path><path d="M8.37 0 C12.82 -0.38, 17.7 0.1, 25.12 0 M8.37 0 C14.9 0, 21.6 -0.12, 25.12 0 M25.12 0 C30.97 -0.48, 33.2 2.55, 33.5 8.37 M25.12 0 C30.7 -0.36, 32.87 3.04, 33.5 8.37 M33.5 8.37 C33.85 12.79, 33.27 18.21, 33.5 27.13 M33.5 8.37 C33.39 15.31, 33.4 22.42, 33.5 27.13 M33.5 27.13 C33.19 32.55, 30.71 35.68, 25.12 35.5 M33.5 27.13 C33.92 33.11, 31.28 35.71, 25.12 35.5 M25.12 35.5 C21.43 35.44, 16.94 35.92, 8.37 35.5 M25.12 35.5 C18.45 35.31, 12.08 35.5, 8.37 35.5 M8.37 35.5 C3.05 35.77, 0.51 32.78, 0 27.13 M8.37 35.5 C3.31 35.75, -0.06 32.66, 0 27.13 M0 27.13 C-0.06 23.77, -0.03 19.48, 0 8.37 M0 27.13 C-0.21 19.98, 0.18 13.27, 0 8.37 M0 8.37 C-0.32 2.47, 2.37 0.12, 8.37 0 M0 8.37 C-0.1 2.57, 2.76 -0.63, 8.37 0" stroke="#000000" stroke-width="1" fill="none"></path></g><g transform="translate(739.5693263902469 73.32921619119543) rotate(0 4.576000213623047 10)"><text x="4.576000213623047" y="0" font-family="Virgil, Segoe UI Emoji" font-size="16px" fill="#1e1e1e" text-anchor="middle" style="white-space: pre;" direction="ltr" dominant-baseline="text-before-edge">z</text></g><g stroke-linecap="round" transform="translate(728.3852862699114 106.68317381641634) rotate(0 18.394803673475735 18.143564972173067)"><path d="M2.41 2.1 C2.41 2.1, 2.41 2.1, 2.41 2.1 M2.41 2.1 C2.41 2.1, 2.41 2.1, 2.41 2.1 M0.84 10.01 C3.19 7.64, 5.14 5.23, 9.37 0.2 M0.84 10.01 C3.2 7.22, 5.84 4.22, 9.37 0.2 M0.58 16.4 C5.04 12.16, 7.84 7.76, 14.36 0.56 M0.58 16.4 C4.03 12.63, 7.44 8.75, 14.36 0.56 M0.32 22.8 C4.22 18.2, 7.77 14.04, 20 0.16 M0.32 22.8 C6.01 16.23, 11.82 9.38, 20 0.16 M0.71 28.44 C5.26 22.47, 10.52 16.74, 24.99 0.52 M0.71 28.44 C6.64 22.12, 12.16 15.55, 24.99 0.52 M1.76 33.33 C10.73 23.6, 19.2 12.62, 29.97 0.88 M1.76 33.33 C12.84 20.8, 23.69 7.72, 29.97 0.88 M4.78 35.96 C12.93 25.88, 22.08 16.16, 34.3 2 M4.78 35.96 C14.73 24.31, 24.81 13.29, 34.3 2 M9.77 36.32 C16.58 28.52, 23.9 19.69, 36.67 5.37 M9.77 36.32 C19.26 25.04, 29.07 14.44, 36.67 5.37 M14.76 36.68 C20.96 29.75, 27.13 22.63, 37.06 11.02 M14.76 36.68 C21.57 28.85, 28.71 20.71, 37.06 11.02 M20.4 36.28 C23.93 30.98, 29.02 27.34, 37.46 16.66 M20.4 36.28 C26.72 29.11, 32.99 21.35, 37.46 16.66 M25.39 36.64 C28.5 32.68, 31.8 29.16, 37.2 23.06 M25.39 36.64 C28.58 33.13, 31.6 29.26, 37.2 23.06 M31.03 36.25 C33.18 33.82, 35.58 31.17, 36.93 29.46 M31.03 36.25 C33.23 33.87, 35.25 31.35, 36.93 29.46" stroke="#82c91e" stroke-width="0.5" fill="none"></path><path d="M9.07 0 C13.63 0.12, 17.84 -0.52, 27.72 0 M9.07 0 C14.05 0.08, 19.17 -0.07, 27.72 0 M27.72 0 C33.4 -0.04, 37.2 3.11, 36.79 9.07 M27.72 0 C33.94 -0.41, 37.27 2.93, 36.79 9.07 M36.79 9.07 C36.8 13.31, 36.6 17.06, 36.79 27.22 M36.79 9.07 C36.61 13.16, 36.88 17.17, 36.79 27.22 M36.79 27.22 C36.79 33.53, 34.01 36.54, 27.72 36.29 M36.79 27.22 C36.89 33.54, 33.43 36.64, 27.72 36.29 M27.72 36.29 C21.8 36.64, 16.45 36.23, 9.07 36.29 M27.72 36.29 C21.36 36.49, 15.31 36.47, 9.07 36.29 M9.07 36.29 C3.18 36.11, -0.58 33.06, 0 27.22 M9.07 36.29 C3.54 35.76, 0.21 32.65, 0 27.22 M0 27.22 C0.16 22.76, -0.43 19.27, 0 9.07 M0 27.22 C0.18 20.59, -0.11 14.45, 0 9.07 M0 9.07 C0 2.96, 3.24 -0.1, 9.07 0 M0 9.07 C0.16 2.88, 3.58 0.5, 9.07 0" stroke="#1e1e1e" stroke-width="1" fill="none"></path></g><g transform="translate(742.892089931943 114.82673878858941) rotate(0 3.888000011444092 10)"><text x="3.888000011444092" y="0" font-family="Virgil, Segoe UI Emoji" font-size="16px" fill="#1e1e1e" text-anchor="middle" style="white-space: pre;" direction="ltr" dominant-baseline="text-before-edge">f</text></g><g stroke-linecap="round"><g transform="translate(764.9619696824348 160.61919671396106) rotate(0 -0.22617937733286908 7.612040132304514)"><path d="M0.06 -0.09 C-0.03 2.47, -0.42 12.75, -0.51 15.31 M-0.09 0.18 C-0.12 2.71, -0.13 12.62, -0.22 15.1" stroke="#000000" stroke-width="1" fill="none"></path></g></g><mask></mask><g stroke-linecap="round"><g transform="translate(732.0469296489682 182.74904426318437) rotate(0 16.08409573866379 -3.4596380533838555)"><path d="M-0.09 0.09 C5.23 -1.02, 26.57 -5.6, 31.93 -6.76 M0.17 0 C5.53 -1.16, 26.95 -5.9, 32.25 -7.01" stroke="#000000" stroke-width="1" fill="none"></path></g></g><mask></mask><g stroke-linecap="round"><g transform="translate(731.4802591747482 150.04529274097376) rotate(0 -0.15352043201858123 16.429793801450387)"><path d="M-0.07 0.05 C-0.12 5.49, -0.32 27.29, -0.38 32.72 M0.16 -0.04 C0.1 5.41, -0.35 27.44, -0.46 32.9" stroke="#000000" stroke-width="1" fill="none"></path></g></g><mask></mask><g stroke-linecap="round"><g transform="translate(764.6477572771012 160.3873234238897) rotate(0 -16.099574075440273 -5.022017871905746)"><path d="M0.06 0 C-5.28 -1.68, -26.78 -8.41, -32.14 -10.05 M-0.11 -0.14 C-5.47 -1.82, -26.93 -8.23, -32.26 -9.89" stroke="#000000" stroke-width="1" fill="none"></path></g></g><mask></mask><g transform="translate(776.4961575883592 29.97525856597383) rotate(0 80.9439926147461 10)"><text x="80.9439926147461" y="0" font-family="Virgil, Segoe UI Emoji" font-size="16px" fill="#1e1e1e" text-anchor="middle" style="white-space: pre;" direction="ltr" dominant-baseline="text-before-edge">positional coordinate</text></g><g transform="translate(777.0584155316426 75.30528869583316) rotate(0 69.18399047851562 10)"><text x="69.18399047851562" y="0" font-family="Virgil, Segoe UI Emoji" font-size="16px" fill="#1e1e1e" text-anchor="middle" style="white-space: pre;" direction="ltr" dominant-baseline="text-before-edge">latent coordinate</text></g><g transform="translate(779.5242999043724 114.82673878858952) rotate(0 45.63999938964844 10)"><text x="45.63999938964844" y="0" font-family="Virgil, Segoe UI Emoji" font-size="16px" fill="#1e1e1e" text-anchor="middle" style="white-space: pre;" direction="ltr" dominant-baseline="text-before-edge">vector field</text></g><g transform="translate(782.1888043545616 156.98295222086324) rotate(0 56.80800247192383 10)"><text x="56.80800247192383" y="0" font-family="Virgil, Segoe UI Emoji" font-size="16px" fill="#1e1e1e" text-anchor="middle" style="white-space: pre;" direction="ltr" dominant-baseline="text-before-edge">neural network</text></g><g transform="translate(521.3331922448842 10.409800309937282) rotate(0 73.94800567626953 52.5)"><text x="73.94800567626953" y="0" font-family="Virgil, Segoe UI Emoji" font-size="28px" fill="#000000" text-anchor="middle" style="white-space: pre;" direction="ltr" dominant-baseline="text-before-edge">discretized</text><text x="73.94800567626953" y="35" font-family="Virgil, Segoe UI Emoji" font-size="28px" fill="#000000" text-anchor="middle" style="white-space: pre;" direction="ltr" dominant-baseline="text-before-edge">physical </text><text x="73.94800567626953" y="70" font-family="Virgil, Segoe UI Emoji" font-size="28px" fill="#000000" text-anchor="middle" style="white-space: pre;" direction="ltr" dominant-baseline="text-before-edge">space</text></g></svg>